<?xml version="1.0" encoding="UTF-8" standalone="no"?>
<!-- Created with Inkscape (http://www.inkscape.org/) -->

<svg
   xmlns:dc="http://purl.org/dc/elements/1.1/"
   xmlns:cc="http://creativecommons.org/ns#"
   xmlns:rdf="http://www.w3.org/1999/02/22-rdf-syntax-ns#"
   xmlns:svg="http://www.w3.org/2000/svg"
   xmlns="http://www.w3.org/2000/svg"
   xmlns:sodipodi="http://sodipodi.sourceforge.net/DTD/sodipodi-0.dtd"
   xmlns:inkscape="http://www.inkscape.org/namespaces/inkscape"
   width="178.05093mm"
   height="40.014572mm"
   viewBox="0 0 178.05093 40.014572"
   version="1.1"
   id="svg8"
   inkscape:version="0.92.4 (f8dce91, 2019-08-02)"
   sodipodi:docname="logo_naturalfarm.svg">
  <defs
     id="defs2">
    <clipPath
       id="clipPath831"
       clipPathUnits="userSpaceOnUse">
      <path
         inkscape:connector-curvature="0"
         id="path829"
         d="M 0,595.28 H 841.89 V 0 H 0 Z" />
    </clipPath>
  </defs>
  <sodipodi:namedview
     id="base"
     pagecolor="#ffffff"
     bordercolor="#666666"
     borderopacity="1.0"
     inkscape:pageopacity="0.0"
     inkscape:pageshadow="2"
     inkscape:zoom="0.35"
     inkscape:cx="336.4742"
     inkscape:cy="75.807067"
     inkscape:document-units="mm"
     inkscape:current-layer="layer1"
     showgrid="false"
     fit-margin-top="-0.1"
     fit-margin-left="0"
     fit-margin-right="0"
     fit-margin-bottom="0"
     inkscape:window-width="1326"
     inkscape:window-height="704"
     inkscape:window-x="1406"
     inkscape:window-y="27"
     inkscape:window-maximized="1" />
  <metadata
     id="metadata5">
    <rdf:RDF>
      <cc:Work
         rdf:about="">
        <dc:format>image/svg+xml</dc:format>
        <dc:type
           rdf:resource="http://purl.org/dc/dcmitype/StillImage" />
        <dc:title></dc:title>
      </cc:Work>
    </rdf:RDF>
  </metadata>
  <g
     inkscape:label="Layer 1"
     inkscape:groupmode="layer"
     id="layer1"
     transform="translate(-18.319772,-132.65581)">
    <g
       transform="matrix(0.35277777,0,0,-0.35277777,-41.154674,257.5515)"
       inkscape:label="logo Natural Farm"
       id="g823">
      <g
         id="g825">
        <g
           clip-path="url(#clipPath831)"
           id="g827">
          <g
             transform="translate(274.2368,312.1865)"
             id="g833">
            <path
               inkscape:connector-curvature="0"
               id="path835"
               style="fill:#6ebf5d;fill-opacity:1;fill-rule:nonzero;stroke:none"
               d="m 0,0 c -4.981,23.537 -24.761,40.126 -47.532,42.132 4.082,-1.796 7.988,-3.84 11.946,-6.808 19.084,-14.335 8.874,-45.192 8.874,-45.192 -9.182,9.186 -13.47,7.397 -27.734,16.232 -14.418,8.926 -14.664,24.03 -12.995,33.718 -26.438,-7.829 -42.85,-34.769 -37.038,-62.217 5.125,-24.21 25.923,-41.017 49.524,-42.209 -4.578,1.94 -8.887,4.101 -13.278,7.393 -19.07,14.333 -8.864,45.188 -8.864,45.188 9.171,-9.182 13.456,-7.394 27.737,-16.228 14.581,-9.034 14.658,-24.382 12.929,-34.056 C -10.338,-53.988 5.768,-27.228 0,0" />
          </g>
          <g
             transform="translate(220.1558,333.3975)"
             id="g837">
            <path
               inkscape:connector-curvature="0"
               id="path839"
               style="fill:#6ebf5d;fill-opacity:1;fill-rule:nonzero;stroke:none"
               d="m 0,0 c 6.98,-7.19 15.821,-9.417 19.07,-14.825 0,0 -0.074,6.042 -12.606,14.623 -6.448,4.435 -8.924,11.619 -9.597,18.061 -0.103,0.963 -0.171,1.913 -0.194,2.834 0,0 -0.26,-0.993 -0.518,-2.555 C -4.522,13.878 -5.113,5.25 0,0" />
          </g>
          <g
             transform="translate(225.5591,267.8838)"
             id="g841">
            <path
               inkscape:connector-curvature="0"
               id="path843"
               style="fill:#6ebf5d;fill-opacity:1;fill-rule:nonzero;stroke:none"
               d="m 0,0 c -6.993,7.189 -15.822,9.42 -19.067,14.82 0,0 0.067,-6.038 12.588,-14.619 6.435,-4.415 8.913,-11.543 9.602,-17.963 0.103,-0.995 0.177,-1.981 0.209,-2.93 0,0 0.267,1.029 0.523,2.638 C 4.528,-13.767 5.073,-5.225 0,0" />
          </g>
          <g
             transform="translate(340.9561,279.8486)"
             id="g845">
            <path
               inkscape:connector-curvature="0"
               id="path847"
               style="fill:#007a6c;fill-opacity:1;fill-rule:nonzero;stroke:none"
               d="m 0,0 c -0.346,-0.098 -0.732,-0.194 -1.167,-0.292 -0.389,-0.1 -0.823,-0.166 -1.29,-0.217 -0.454,-0.045 -0.949,-0.069 -1.483,-0.069 -3.444,0 -6.258,0.772 -8.414,2.337 -2.159,1.547 -4.052,3.95 -5.648,7.202 -0.397,0.733 -0.906,1.766 -1.527,3.099 -0.635,1.339 -1.332,2.841 -2.087,4.516 -0.744,1.674 -1.548,3.462 -2.4,5.354 -0.846,1.902 -1.684,3.763 -2.513,5.619 -1.936,4.316 -4.035,8.984 -6.269,13.982 l 0.289,-35.052 c 0.054,-1.452 0.092,-2.64 0.114,-3.559 0.02,-0.93 0.061,-1.665 0.112,-2.202 0.046,-0.576 0.1,-1.01 0.152,-1.296 -3.017,0 -5.319,0.616 -6.93,1.85 -1.606,1.242 -2.401,3.318 -2.401,6.238 v 41.967 c 0.331,0.09 0.726,0.187 1.166,0.29 0.383,0.097 0.812,0.171 1.267,0.225 0.472,0.043 0.972,0.068 1.501,0.068 3.838,0 6.921,-0.837 9.246,-2.507 2.336,-1.69 4.401,-4.274 6.205,-7.766 0.241,-0.486 0.612,-1.279 1.121,-2.37 0.506,-1.093 1.098,-2.39 1.753,-3.868 0.649,-1.484 1.367,-3.061 2.145,-4.758 0.781,-1.708 1.561,-3.434 2.342,-5.178 1.787,-4.091 3.723,-8.524 5.82,-13.342 l -0.227,31.701 c 0,2.867 0.801,4.93 2.417,6.193 1.61,1.258 3.915,1.895 6.914,1.895 C 0.163,49.725 0.111,49.259 0.066,48.667 0.02,48.138 -0.012,47.411 -0.04,46.522 c -0.02,-0.9 -0.037,-2.075 -0.037,-3.533 z" />
          </g>
          <g
             transform="translate(366.3843,294.3545)"
             id="g849">
            <path
               inkscape:connector-curvature="0"
               id="path851"
               style="fill:#007a6c;fill-opacity:1;fill-rule:nonzero;stroke:none"
               d="m 0,0 c -0.638,0.09 -1.355,0.187 -2.15,0.29 -0.798,0.09 -1.622,0.143 -2.451,0.143 -0.681,0 -1.324,-0.037 -1.953,-0.112 -0.635,-0.067 -1.218,-0.204 -1.759,-0.404 -1.21,-0.376 -2.139,-0.988 -2.768,-1.817 -0.238,-0.292 -0.435,-0.622 -0.575,-0.987 -0.157,-0.352 -0.255,-0.763 -0.301,-1.198 -0.054,-0.15 -0.074,-0.369 -0.074,-0.658 0,-0.486 0.074,-1.011 0.218,-1.565 0.157,-0.56 0.44,-1.085 0.883,-1.56 0.389,-0.497 0.955,-0.916 1.702,-1.244 0.758,-0.338 1.761,-0.508 3.031,-0.508 0.384,0 0.675,0.013 0.866,0.067 1.365,0.049 2.563,0.441 3.572,1.175 0.495,0.283 0.895,0.635 1.25,1.053 0.329,0.406 0.629,0.852 0.861,1.338 0.537,0.928 0.912,1.879 1.098,2.845 0.195,0.979 0.292,1.876 0.292,2.7 -0.043,0 -0.083,0.014 -0.106,0.03 -0.026,0.03 -0.057,0.036 -0.112,0.036 -0.194,0.054 -0.412,0.1 -0.657,0.151 C 0.626,-0.173 0.334,-0.106 0,0 m -15.082,3.491 c 1.315,0.83 2.791,1.442 4.433,1.861 1.652,0.404 3.391,0.614 5.181,0.614 2.526,0 4.927,-0.367 7.21,-1.085 -0.143,1.496 -0.464,2.836 -0.944,3.994 -0.627,1.52 -1.579,2.611 -2.834,3.284 -0.501,0.248 -1.027,0.425 -1.579,0.553 -0.554,0.12 -1.198,0.174 -1.93,0.174 h -0.801 c -0.675,-0.048 -1.361,-0.158 -2.036,-0.315 -0.686,-0.18 -1.367,-0.387 -2.038,-0.621 -0.69,-0.255 -1.356,-0.455 -2.045,-0.619 -0.681,-0.173 -1.333,-0.273 -1.959,-0.273 -0.686,0 -1.347,0.158 -1.985,0.451 -0.583,0.337 -1.084,0.898 -1.524,1.676 l -0.14,0.291 0.14,0.217 c 1.458,1.549 3.171,2.807 5.139,3.747 1.967,0.943 4.124,1.49 6.448,1.645 0.241,0.048 0.45,0.077 0.624,0.077 h 0.618 c 2.23,0 4.272,-0.403 6.122,-1.204 1.847,-0.801 3.449,-1.906 4.801,-3.322 2.774,-3.008 4.204,-6.967 4.302,-11.868 V 2.176 c 0,-5.049 -1.279,-9.15 -3.861,-12.314 -1.264,-1.551 -2.782,-2.812 -4.547,-3.785 -1.773,-0.974 -3.749,-1.572 -5.94,-1.818 -0.3,-0.052 -0.586,-0.066 -0.877,-0.066 h -0.95 c -1.018,0 -2.088,0.081 -3.203,0.245 -1.112,0.166 -2.213,0.502 -3.283,0.989 -1.112,0.431 -2.139,1.001 -3.057,1.703 -0.924,0.714 -1.701,1.618 -2.336,2.732 -0.921,1.406 -1.404,3.142 -1.453,5.176 v 0.442 c 0,1.893 0.389,3.472 1.17,4.727 0.677,1.265 1.718,2.358 3.134,3.284" />
          </g>
          <g
             transform="translate(400.6978,285.6748)"
             id="g853">
            <path
               inkscape:connector-curvature="0"
               id="path855"
               style="fill:#007a6c;fill-opacity:1;fill-rule:nonzero;stroke:none"
               d="m 0,0 c 0,-0.142 0.017,-0.307 0.068,-0.509 0.089,-0.388 0.143,-0.739 0.143,-1.091 0,-0.875 -0.194,-1.664 -0.583,-2.372 -0.383,-0.696 -0.912,-1.294 -1.601,-1.774 -1.361,-0.981 -3.009,-1.464 -4.953,-1.464 -1.602,0 -3.172,0.374 -4.736,1.092 -1.547,0.723 -2.954,1.825 -4.227,3.286 -1.263,1.457 -2.267,3.266 -3.031,5.429 -0.746,2.155 -1.121,4.69 -1.121,7.609 l 0.066,21.054 c 0,2.916 0.778,5.005 2.333,6.277 1.559,1.249 3.818,1.876 6.781,1.876 -0.046,-0.326 -0.097,-0.792 -0.149,-1.382 -0.054,-0.524 -0.092,-1.244 -0.115,-2.147 -0.028,-0.897 -0.034,-2.072 -0.034,-3.524 l 0.075,-4.595 h 9.769 c 0,-2.189 -0.607,-3.933 -1.828,-5.259 -1.204,-1.3 -2.937,-1.951 -5.173,-1.951 h -2.768 l -0.075,-10.349 c 0,-2.034 0.183,-3.759 0.553,-5.14 0.365,-1.383 0.86,-2.507 1.495,-3.382 1.31,-1.668 3.008,-2.483 5.093,-2.483 0.875,0 1.753,0.12 2.628,0.366 C -0.913,-0.29 -0.449,-0.142 0,0" />
          </g>
          <g
             transform="translate(436.3926,294.2715)"
             id="g857">
            <path
               inkscape:connector-curvature="0"
               id="path859"
               style="fill:#007a6c;fill-opacity:1;fill-rule:nonzero;stroke:none"
               d="m 0,0 c 0,-3.247 -0.486,-5.904 -1.444,-7.943 -0.982,-2.029 -2.24,-3.637 -3.764,-4.806 -1.535,-1.159 -3.231,-1.966 -5.139,-2.4 -1.893,-0.435 -3.763,-0.658 -5.605,-0.658 -1.853,0 -3.709,0.223 -5.619,0.658 -1.89,0.434 -3.589,1.241 -5.13,2.4 -1.536,1.169 -2.777,2.777 -3.718,4.806 -0.938,2.039 -1.415,4.696 -1.415,7.943 l 0.068,10.275 c 0,2.919 0.792,4.996 2.371,6.24 1.57,1.243 3.877,1.848 6.892,1.848 -0.055,-0.283 -0.098,-0.727 -0.149,-1.303 -0.054,-0.538 -0.092,-1.271 -0.123,-2.19 -0.02,-0.929 -0.037,-2.11 -0.037,-3.571 L -22.726,0 c 0,-2.035 0.2,-3.682 0.58,-4.914 0.389,-1.235 0.907,-2.199 1.564,-2.871 0.658,-0.684 1.385,-1.148 2.186,-1.395 0.809,-0.241 1.615,-0.357 2.444,-0.357 0.832,0 1.639,0.116 2.439,0.357 0.798,0.247 1.536,0.711 2.186,1.395 0.657,0.672 1.192,1.636 1.56,2.871 0.401,1.232 0.593,2.879 0.593,4.914 l 0.069,10.275 c 0,2.919 0.797,4.996 2.402,6.24 1.615,1.243 3.912,1.848 6.929,1.848 C 0.171,18.08 0.125,17.636 0.083,17.06 0.028,16.522 -0.006,15.789 -0.037,14.87 -0.055,13.941 -0.069,12.76 -0.069,11.299 Z" />
          </g>
          <g
             transform="translate(442.4521,296.8301)"
             id="g861">
            <path
               inkscape:connector-curvature="0"
               id="path863"
               style="fill:#007a6c;fill-opacity:1;fill-rule:nonzero;stroke:none"
               d="m 0,0 c 0,3.25 0.46,5.914 1.409,7.978 0.947,2.059 2.18,3.674 3.678,4.843 1.518,1.163 3.2,1.95 5.07,2.378 1.87,0.403 3.735,0.606 5.566,0.606 H 19.3 c 0.246,-1.017 0.292,-1.968 0.151,-2.839 C 19.354,12.235 19.022,11.524 18.456,10.858 17.901,10.176 16.998,9.758 15.723,9.625 14.898,9.519 14.087,9.325 13.294,9.071 12.494,8.801 11.768,8.335 11.138,7.68 10.515,7.021 9.994,6.087 9.574,4.872 9.156,3.661 8.953,2.032 8.953,0 v -10.57 c 0,-1.458 0.009,-2.625 0.031,-3.534 0.03,-0.905 0.067,-1.623 0.12,-2.16 0.039,-0.576 0.089,-1.009 0.141,-1.296 -2.963,0 -5.245,0.617 -6.844,1.851 C 0.792,-14.468 0,-12.392 0,-9.472 Z" />
          </g>
          <g
             transform="translate(484.7041,294.3545)"
             id="g865">
            <path
               inkscape:connector-curvature="0"
               id="path867"
               style="fill:#007a6c;fill-opacity:1;fill-rule:nonzero;stroke:none"
               d="m 0,0 c -0.636,0.09 -1.348,0.187 -2.146,0.29 -0.803,0.09 -1.615,0.143 -2.447,0.143 -0.686,0 -1.342,-0.037 -1.959,-0.112 -0.637,-0.067 -1.221,-0.204 -1.759,-0.404 -1.215,-0.376 -2.141,-0.988 -2.762,-1.817 -0.246,-0.292 -0.449,-0.622 -0.583,-0.987 -0.15,-0.352 -0.246,-0.763 -0.298,-1.198 -0.054,-0.15 -0.074,-0.369 -0.074,-0.658 0,-0.486 0.074,-1.011 0.222,-1.565 0.15,-0.56 0.433,-1.085 0.87,-1.56 0.395,-0.497 0.964,-0.916 1.713,-1.244 0.755,-0.338 1.759,-0.508 3.029,-0.508 0.38,0 0.683,0.013 0.869,0.067 1.358,0.049 2.556,0.441 3.566,1.175 0.494,0.283 0.906,0.635 1.249,1.053 0.332,0.406 0.63,0.852 0.87,1.338 0.529,0.928 0.904,1.879 1.089,2.845 0.197,0.979 0.301,1.876 0.301,2.7 -0.052,0 -0.089,0.014 -0.112,0.03 -0.023,0.03 -0.06,0.036 -0.115,0.036 -0.191,0.054 -0.408,0.1 -0.654,0.151 C 0.638,-0.173 0.337,-0.106 0,0 m -15.082,3.491 c 1.31,0.83 2.791,1.442 4.443,1.861 1.648,0.404 3.383,0.614 5.171,0.614 2.528,0 4.93,-0.367 7.218,-1.085 -0.144,1.496 -0.47,2.836 -0.947,3.994 -0.638,1.52 -1.581,2.611 -2.845,3.284 -0.492,0.248 -1.004,0.425 -1.573,0.553 -0.552,0.12 -1.201,0.174 -1.919,0.174 h -0.809 c -0.68,-0.048 -1.355,-0.158 -2.036,-0.315 -0.686,-0.18 -1.367,-0.387 -2.048,-0.621 -0.683,-0.255 -1.346,-0.455 -2.033,-0.619 -0.675,-0.173 -1.333,-0.273 -1.965,-0.273 -0.686,0 -1.335,0.158 -1.972,0.451 -0.593,0.337 -1.084,0.898 -1.537,1.676 l -0.139,0.291 0.139,0.217 c 1.459,1.549 3.172,2.807 5.142,3.747 1.977,0.943 4.124,1.49 6.449,1.645 0.24,0.048 0.448,0.077 0.62,0.077 H -5.1 c 2.229,0 4.267,-0.403 6.115,-1.204 1.85,-0.801 3.452,-1.906 4.807,-3.322 2.774,-3.008 4.203,-6.967 4.315,-11.868 V 2.176 c 0,-5.049 -1.295,-9.15 -3.869,-12.314 -1.261,-1.551 -2.791,-2.812 -4.555,-3.785 -1.774,-0.974 -3.755,-1.572 -5.945,-1.818 -0.295,-0.052 -0.584,-0.066 -0.868,-0.066 h -0.952 c -1.026,0 -2.087,0.081 -3.202,0.245 -1.124,0.166 -2.214,0.502 -3.277,0.989 -1.124,0.431 -2.14,1.001 -3.066,1.703 -0.929,0.714 -1.702,1.618 -2.337,2.732 -0.918,1.406 -1.404,3.142 -1.447,5.176 v 0.442 c 0,1.893 0.387,3.472 1.155,4.727 0.693,1.265 1.722,2.358 3.144,3.284" />
          </g>
          <g
             transform="translate(509.9834,278.5479)"
             id="g869">
            <path
               inkscape:connector-curvature="0"
               id="path871"
               style="fill:#007a6c;fill-opacity:1;fill-rule:nonzero;stroke:none"
               d="M 0,0 C -1.501,-0.166 -2.814,0 -3.93,0.454 -5.051,0.928 -5.985,1.561 -6.74,2.398 -7.495,3.223 -8.05,4.189 -8.41,5.31 -8.776,6.425 -8.957,7.592 -8.957,8.811 V 44.29 c -0.051,1.458 -0.085,2.633 -0.111,3.533 -0.023,0.889 -0.06,1.615 -0.112,2.144 -0.054,0.593 -0.089,1.058 -0.142,1.394 3.013,0 5.318,-0.637 6.92,-1.895 C -0.801,48.203 0,46.14 0,43.273 V 9.686 Z" />
          </g>
          <g
             transform="translate(542.3926,286.3281)"
             id="g873">
            <path
               inkscape:connector-curvature="0"
               id="path875"
               style="fill:#007a6c;fill-opacity:1;fill-rule:nonzero;stroke:none"
               d="m 0,0 c 0,-1.452 0.002,-2.641 0.034,-3.56 0.023,-0.929 0.054,-1.665 0.106,-2.202 0.054,-0.576 0.096,-1.009 0.148,-1.296 -2.968,0 -5.25,0.617 -6.849,1.851 -1.595,1.241 -2.414,3.317 -2.414,6.237 L -9.04,30.684 c 0,3.348 0.54,5.938 1.607,7.793 0.529,0.967 1.162,1.753 1.89,2.336 0.732,0.576 1.562,1.068 2.482,1.451 0.629,0.245 1.279,0.454 1.959,0.625 0.681,0.158 1.414,0.296 2.182,0.399 1.035,0.097 2.097,0.171 3.221,0.225 1.115,0.043 2.287,0.068 3.485,0.068 h 6.412 c 3.103,0 5.342,0.042 6.702,0.132 1.354,0.106 2.235,0.174 2.626,0.234 h 0.149 0.44 v -0.434 c 0,-1.654 -0.295,-2.948 -0.872,-3.862 C 22.754,38.664 22.002,37.917 20.98,37.378 20.055,36.899 19.036,36.6 17.915,36.509 16.8,36.413 15.688,36.361 14.569,36.361 H 2.182 C 1.689,36.314 1.28,36.195 0.949,36.001 0.657,35.844 0.435,35.656 0.288,35.418 0,34.878 -0.144,34.086 -0.144,33.008 l 0.069,-8.887 H 17.99 c 0,-2.184 -0.606,-3.935 -1.816,-5.243 -1.213,-1.319 -2.937,-1.976 -5.17,-1.976 H -0.075 Z" />
          </g>
          <g
             transform="translate(581.6299,294.3545)"
             id="g877">
            <path
               inkscape:connector-curvature="0"
               id="path879"
               style="fill:#007a6c;fill-opacity:1;fill-rule:nonzero;stroke:none"
               d="m 0,0 c -0.629,0.09 -1.341,0.187 -2.147,0.29 -0.801,0.09 -1.617,0.143 -2.44,0.143 -0.686,0 -1.339,-0.037 -1.959,-0.112 -0.638,-0.067 -1.221,-0.204 -1.753,-0.404 -1.223,-0.376 -2.144,-0.988 -2.774,-1.817 -0.24,-0.292 -0.435,-0.622 -0.574,-0.987 -0.158,-0.352 -0.249,-0.763 -0.301,-1.198 -0.045,-0.15 -0.06,-0.369 -0.06,-0.658 0,-0.486 0.06,-1.011 0.203,-1.565 0.158,-0.56 0.444,-1.085 0.875,-1.56 0.395,-0.497 0.964,-0.916 1.719,-1.244 0.755,-0.338 1.753,-0.508 3.025,-0.508 0.38,0 0.678,0.013 0.873,0.067 1.361,0.049 2.553,0.441 3.56,1.175 0.494,0.283 0.906,0.635 1.25,1.053 0.328,0.406 0.632,0.852 0.869,1.338 0.531,0.928 0.904,1.879 1.095,2.845 0.191,0.979 0.295,1.876 0.295,2.7 -0.052,0 -0.089,0.014 -0.111,0.03 -0.021,0.03 -0.058,0.036 -0.113,0.036 -0.194,0.054 -0.411,0.1 -0.657,0.151 C 0.638,-0.173 0.343,-0.106 0,0 m -15.073,3.491 c 1.315,0.83 2.791,1.442 4.44,1.861 1.648,0.404 3.381,0.614 5.171,0.614 2.52,0 4.93,-0.367 7.218,-1.085 -0.144,1.496 -0.464,2.836 -0.942,3.994 -0.637,1.52 -1.592,2.611 -2.841,3.284 -0.495,0.248 -1.019,0.425 -1.571,0.553 -0.563,0.12 -1.207,0.174 -1.932,0.174 h -0.807 c -0.672,-0.048 -1.355,-0.158 -2.036,-0.315 -0.687,-0.18 -1.367,-0.387 -2.039,-0.621 -0.684,-0.255 -1.361,-0.455 -2.051,-0.619 -0.666,-0.173 -1.326,-0.273 -1.953,-0.273 -0.688,0 -1.338,0.158 -1.976,0.451 -0.591,0.337 -1.092,0.898 -1.527,1.676 l -0.148,0.291 0.148,0.217 c 1.459,1.549 3.166,2.807 5.133,3.747 1.973,0.943 4.13,1.49 6.449,1.645 0.24,0.048 0.446,0.077 0.623,0.077 h 0.612 c 2.234,0 4.281,-0.403 6.125,-1.204 1.848,-0.801 3.45,-1.906 4.802,-3.322 2.785,-3.008 4.206,-6.967 4.31,-11.868 V 2.176 c 0,-5.049 -1.284,-9.15 -3.858,-12.314 -1.273,-1.551 -2.783,-2.812 -4.555,-3.785 -1.783,-0.974 -3.749,-1.572 -5.943,-1.818 -0.298,-0.052 -0.584,-0.066 -0.881,-0.066 h -0.944 c -1.009,0 -2.087,0.081 -3.191,0.245 -1.123,0.166 -2.216,0.502 -3.285,0.989 -1.122,0.431 -2.151,1.001 -3.061,1.703 -0.929,0.714 -1.704,1.618 -2.336,2.732 -0.927,1.406 -1.407,3.142 -1.458,5.176 v 0.442 c 0,1.893 0.38,3.472 1.161,4.727 0.68,1.265 1.727,2.358 3.143,3.284" />
          </g>
          <g
             transform="translate(596.6143,296.8301)"
             id="g881">
            <path
               inkscape:connector-curvature="0"
               id="path883"
               style="fill:#007a6c;fill-opacity:1;fill-rule:nonzero;stroke:none"
               d="m 0,0 c 0,3.25 0.472,5.914 1.422,7.978 0.94,2.059 2.176,3.674 3.68,4.843 1.504,1.163 3.186,1.95 5.064,2.378 1.871,0.403 3.727,0.606 5.568,0.606 h 3.575 c 0.237,-1.017 0.292,-1.968 0.149,-2.839 -0.104,-0.731 -0.43,-1.442 -0.996,-2.108 C 17.916,10.176 17.004,9.758 15.734,9.625 14.899,9.519 14.096,9.325 13.292,9.071 12.5,8.801 11.773,8.335 11.147,7.68 10.516,7.021 9.995,6.087 9.583,4.872 9.171,3.661 8.963,2.032 8.963,0 v -10.57 c 0,-1.458 0.014,-2.625 0.028,-3.534 0.031,-0.905 0.066,-1.623 0.12,-2.16 0.037,-0.576 0.097,-1.009 0.152,-1.296 -2.966,0 -5.253,0.617 -6.855,1.851 C 0.798,-14.468 0,-12.392 0,-9.472 Z" />
          </g>
          <g
             transform="translate(664.1143,297.6201)"
             id="g885">
            <path
               inkscape:connector-curvature="0"
               id="path887"
               style="fill:#007a6c;fill-opacity:1;fill-rule:nonzero;stroke:none"
               d="m 0,0 c 0,2.047 -0.2,3.695 -0.611,4.937 -0.421,1.226 -0.964,2.201 -1.645,2.894 -0.692,0.704 -1.43,1.184 -2.26,1.429 -0.817,0.241 -1.646,0.36 -2.467,0.36 -0.832,0 -1.642,-0.119 -2.448,-0.36 -0.803,-0.245 -1.536,-0.725 -2.185,-1.429 -0.66,-0.693 -1.19,-1.668 -1.601,-2.894 C -13.629,3.695 -13.838,2.047 -13.838,0 v -11.292 c 0,-1.452 0.023,-2.641 0.074,-3.56 0.052,-0.929 0.095,-1.665 0.15,-2.202 0.045,-0.576 0.082,-1.009 0.134,-1.296 -3,0 -5.311,0.638 -6.913,1.888 -1.606,1.264 -2.416,3.329 -2.416,6.2 L -22.726,0 c 0,2.047 -0.209,3.695 -0.621,4.937 -0.411,1.226 -0.958,2.201 -1.646,2.894 -0.675,0.704 -1.425,1.184 -2.251,1.429 -0.832,0.241 -1.655,0.36 -2.48,0.36 -0.82,0 -1.644,-0.119 -2.439,-0.36 C -32.966,9.015 -33.695,8.535 -34.354,7.831 -35.008,7.138 -35.528,6.163 -35.915,4.937 -36.304,3.695 -36.498,2.047 -36.498,0 v -11.292 c 0,-1.452 0.015,-2.641 0.034,-3.56 0.026,-0.929 0.064,-1.665 0.114,-2.202 0.046,-0.576 0.089,-1.009 0.141,-1.296 -3.012,0 -5.313,0.638 -6.927,1.888 -1.6,1.264 -2.392,3.329 -2.392,6.2 L -45.46,0 c 0,3.261 0.469,5.923 1.421,7.988 0.944,2.064 2.168,3.68 3.681,4.841 1.501,1.169 3.194,1.951 5.055,2.372 1.879,0.403 3.733,0.619 5.579,0.619 2.045,0 4.056,-0.246 6.055,-0.738 1.982,-0.48 3.766,-1.4 5.31,-2.761 1.555,1.361 3.329,2.281 5.328,2.761 1.981,0.492 4.001,0.738 6.048,0.738 1.827,0 3.709,-0.216 5.608,-0.619 1.884,-0.421 3.6,-1.203 5.133,-2.372 C 5.291,11.668 6.515,10.052 7.476,7.988 8.416,5.923 8.896,3.261 8.896,0 v -11.292 c 0,-1.452 0.009,-2.641 0.038,-3.56 0.02,-0.929 0.051,-1.665 0.106,-2.202 0.051,-0.576 0.097,-1.009 0.146,-1.296 -3.02,0 -5.311,0.638 -6.889,1.888 -1.579,1.264 -2.371,3.329 -2.371,6.2 z" />
          </g>
          <g
             transform="translate(330.9395,259.7969)"
             id="g889">
            <path
               inkscape:connector-curvature="0"
               id="path891"
               style="fill:#939598;fill-opacity:1;fill-rule:nonzero;stroke:none"
               d="m 0,0 h 1.824 l 0.63,-2.674 H 6.92 V -5.033 H 2.91 v -9.486 c 0,-1.542 0.665,-2.311 1.997,-2.311 H 6.92 v -2.358 H 4.152 C 1.384,-19.188 0,-17.706 0,-14.739 Z" />
          </g>
          <g
             transform="translate(341.5557,240.6084)"
             id="g893">
            <path
               inkscape:connector-curvature="0"
               id="path895"
               style="fill:#939598;fill-opacity:1;fill-rule:nonzero;stroke:none"
               d="m 0,0 v 22.491 h 2.91 v -7.769 c 1.404,1.195 3.119,1.793 5.143,1.793 4.121,0 6.181,-2.051 6.181,-6.152 V 0 h -2.909 v 10.412 c 0,2.453 -1.222,3.68 -3.665,3.68 -1.667,0 -3.251,-0.697 -4.75,-2.093 L 2.91,0 Z" />
          </g>
          <g
             transform="translate(362.6318,250.4541)"
             id="g897">
            <path
               inkscape:connector-curvature="0"
               id="path899"
               style="fill:#939598;fill-opacity:1;fill-rule:nonzero;stroke:none"
               d="M 0,0 H 8.934 C 8.871,2.894 7.455,4.341 4.687,4.341 1.75,4.341 0.188,2.894 0,0 m 4.687,6.669 c 4.697,0 7.046,-2.324 7.046,-6.97 0,-0.66 -0.047,-1.366 -0.141,-2.122 H 0 c 0,-3.377 1.971,-5.064 5.914,-5.064 1.877,0 3.544,0.209 5.001,0.63 v -2.36 c -1.457,-0.421 -3.23,-0.629 -5.316,-0.629 -5.673,0 -8.509,2.814 -8.509,8.445 0,5.379 2.533,8.07 7.597,8.07" />
          </g>
          <g
             transform="translate(389.0552,254.9209)"
             id="g901">
            <path
               inkscape:connector-curvature="0"
               id="path903"
               style="fill:#939598;fill-opacity:1;fill-rule:nonzero;stroke:none"
               d="M 0,0 V -14.313 H -2.91 V 3.003 c 0,4.205 2.317,6.308 6.952,6.308 1.457,0 2.999,-0.315 4.625,-0.944 V 6.008 C 7.104,6.637 5.557,6.952 4.026,6.952 1.342,6.952 0,5.729 0,3.285 V 2.202 H 9.846 V -14.313 H 6.936 V 0 Z" />
          </g>
          <g
             transform="translate(403.9341,240.6084)"
             id="g905">
            <path
               inkscape:connector-curvature="0"
               id="path907"
               style="fill:#939598;fill-opacity:1;fill-rule:nonzero;stroke:none"
               d="m 0,0 v 16.515 h 1.966 l 0.519,-2.109 c 1.688,1.405 3.544,2.109 5.568,2.109 4.121,0 6.181,-2.051 6.181,-6.152 V 0 h -2.91 v 10.412 c 0,2.453 -1.221,3.68 -3.664,3.68 -1.667,0 -3.251,-0.697 -4.75,-2.093 L 2.91,0 Z" />
          </g>
          <g
             transform="translate(425.0088,250.4541)"
             id="g909">
            <path
               inkscape:connector-curvature="0"
               id="path911"
               style="fill:#939598;fill-opacity:1;fill-rule:nonzero;stroke:none"
               d="M 0,0 H 8.935 C 8.871,2.894 7.456,4.341 4.687,4.341 1.752,4.341 0.189,2.894 0,0 m 4.687,6.669 c 4.699,0 7.046,-2.324 7.046,-6.97 0,-0.66 -0.045,-1.366 -0.139,-2.122 H 0 c 0,-3.377 1.973,-5.064 5.914,-5.064 1.878,0 3.545,0.209 5.002,0.63 v -2.36 C 9.459,-9.638 7.687,-9.846 5.6,-9.846 c -5.672,0 -8.508,2.814 -8.508,8.445 0,5.379 2.531,8.07 7.595,8.07" />
          </g>
          <g
             transform="translate(440.5029,241.3945)"
             id="g913">
            <path
               inkscape:connector-curvature="0"
               id="path915"
               style="fill:#939598;fill-opacity:1;fill-rule:nonzero;stroke:none"
               d="M 0,0 V 2.517 C 1.938,1.888 3.9,1.572 5.883,1.572 c 2.631,0 3.946,0.787 3.946,2.36 0,1.467 -0.918,2.202 -2.751,2.202 H 4.719 c -3.567,0 -5.348,1.624 -5.348,4.876 0,3.145 2.29,4.719 6.872,4.719 1.972,0 3.926,-0.264 5.867,-0.788 v -2.516 c -1.941,0.63 -3.895,0.944 -5.867,0.944 -2.747,0 -4.121,-0.787 -4.121,-2.359 0,-1.47 0.866,-2.202 2.597,-2.202 h 2.359 c 3.775,0 5.662,-1.627 5.662,-4.876 0,-3.146 -2.288,-4.718 -6.857,-4.718 C 3.9,-0.786 1.938,-0.526 0,0" />
          </g>
          <g
             transform="translate(457.1748,259.7969)"
             id="g917">
            <path
               inkscape:connector-curvature="0"
               id="path919"
               style="fill:#939598;fill-opacity:1;fill-rule:nonzero;stroke:none"
               d="m 0,0 h 1.824 l 0.63,-2.674 H 6.921 V -5.033 H 2.908 v -9.486 c 0,-1.542 0.667,-2.311 1.999,-2.311 h 2.014 v -2.358 H 4.152 C 1.384,-19.188 0,-17.706 0,-14.739 Z" />
          </g>
          <g
             transform="translate(475.6543,240.6084)"
             id="g921">
            <path
               inkscape:connector-curvature="0"
               id="path923"
               style="fill:#939598;fill-opacity:1;fill-rule:nonzero;stroke:none"
               d="m 0,0 v 17.315 c 0,3.995 2.265,5.994 6.795,5.994 1.248,0 2.422,-0.211 3.522,-0.629 V 20.32 C 9.279,20.738 8.102,20.949 6.78,20.949 4.201,20.949 2.911,19.78 2.911,17.44 v -0.925 h 5.11 v -2.36 H 2.911 V 0 Z" />
          </g>
          <g
             transform="translate(486.0518,240.6084)"
             id="g925">
            <path
               inkscape:connector-curvature="0"
               id="path927"
               style="fill:#939598;fill-opacity:1;fill-rule:nonzero;stroke:none"
               d="m 0,0 v 16.515 h 1.965 l 0.52,-2.109 c 1.448,1.405 3.186,2.109 5.222,2.109 v -2.423 c -1.973,0 -3.571,-0.697 -4.799,-2.093 L 2.908,0 Z" />
          </g>
          <g
             transform="translate(503.7451,242.9668)"
             id="g929">
            <path
               inkscape:connector-curvature="0"
               id="path931"
               style="fill:#939598;fill-opacity:1;fill-rule:nonzero;stroke:none"
               d="M 0,0 C 3.303,0 4.956,1.986 4.956,5.96 4.956,9.851 3.303,11.797 0,11.797 -3.303,11.797 -4.953,9.851 -4.953,5.96 -4.953,1.986 -3.303,0 0,0 m -7.864,5.897 c 0,5.505 2.622,8.259 7.864,8.259 5.243,0 7.864,-2.754 7.864,-8.259 0,-5.494 -2.621,-8.242 -7.864,-8.242 -5.222,0 -7.843,2.748 -7.864,8.242" />
          </g>
          <g
             transform="translate(515.541,240.6084)"
             id="g933">
            <path
               inkscape:connector-curvature="0"
               id="path935"
               style="fill:#939598;fill-opacity:1;fill-rule:nonzero;stroke:none"
               d="m 0,0 v 16.515 h 1.968 l 0.486,-2.077 c 1.584,1.384 3.309,2.077 5.176,2.077 2.391,0 4.02,-0.755 4.89,-2.266 1.793,1.511 3.612,2.266 5.459,2.266 3.794,0 5.694,-2.094 5.694,-6.278 V 0 h -2.911 v 10.395 c 0,2.464 -1.038,3.697 -3.115,3.697 -1.551,0 -3.002,-0.715 -4.355,-2.139 V 0 h -2.911 v 10.349 c 0,2.494 -1.027,3.743 -3.083,3.743 -1.636,0 -3.097,-0.715 -4.387,-2.139 L 2.911,0 Z" />
          </g>
          <g
             transform="translate(551.7959,240.6084)"
             id="g937">
            <path
               inkscape:connector-curvature="0"
               id="path939"
               style="fill:#939598;fill-opacity:1;fill-rule:nonzero;stroke:none"
               d="m 0,0 v 16.515 h 1.965 l 0.52,-2.109 c 1.688,1.405 3.543,2.109 5.568,2.109 4.121,0 6.179,-2.051 6.179,-6.152 V 0 h -2.908 v 10.412 c 0,2.453 -1.221,3.68 -3.666,3.68 -1.667,0 -3.25,-0.697 -4.75,-2.093 L 2.908,0 Z" />
          </g>
          <g
             transform="translate(576.6611,248.3145)"
             id="g941">
            <path
               inkscape:connector-curvature="0"
               id="path943"
               style="fill:#939598;fill-opacity:1;fill-rule:nonzero;stroke:none"
               d="m 0,0 c -2.526,0 -3.789,-0.892 -3.789,-2.674 0,-1.784 0.995,-2.674 2.988,-2.674 2.014,0 3.716,0.536 5.111,1.605 v 3.429 C 2.874,-0.105 1.437,0 0,0 m -6.7,-2.722 c 0,3.387 2.233,5.081 6.7,5.081 1.437,0 2.874,-0.105 4.31,-0.314 v 1.556 c 0,1.899 -1.485,2.848 -4.451,2.848 -1.698,0 -3.439,-0.263 -5.221,-0.787 v 2.359 c 1.782,0.524 3.523,0.788 5.221,0.788 4.908,0 7.362,-1.711 7.362,-5.128 V -7.706 H 5.585 L 4.578,-6.07 c -1.647,-1.093 -3.44,-1.636 -5.379,-1.636 -3.931,0 -5.899,1.661 -5.899,4.984" />
          </g>
          <g
             transform="translate(588.6006,259.7969)"
             id="g945">
            <path
               inkscape:connector-curvature="0"
               id="path947"
               style="fill:#939598;fill-opacity:1;fill-rule:nonzero;stroke:none"
               d="M 0,0 H 1.824 L 2.453,-2.674 H 6.92 V -5.033 H 2.908 v -9.486 c 0,-1.542 0.666,-2.311 1.999,-2.311 H 6.92 v -2.358 H 4.152 C 1.384,-19.188 0,-17.706 0,-14.739 Z" />
          </g>
          <g
             transform="translate(613.4512,257.123)"
             id="g949">
            <path
               inkscape:connector-curvature="0"
               id="path951"
               style="fill:#939598;fill-opacity:1;fill-rule:nonzero;stroke:none"
               d="m 0,0 v -16.515 h -1.999 l -0.504,2.108 c -2.001,-1.407 -4.015,-2.108 -6.039,-2.108 -3.795,0 -5.693,2.049 -5.693,6.148 V 0 h 2.911 v -10.412 c 0,-2.454 1.215,-3.681 3.648,-3.681 1.667,0 3.255,0.697 4.765,2.09 V 0 Z" />
          </g>
          <g
             transform="translate(618.1689,240.6084)"
             id="g953">
            <path
               inkscape:connector-curvature="0"
               id="path955"
               style="fill:#939598;fill-opacity:1;fill-rule:nonzero;stroke:none"
               d="m 0,0 v 16.515 h 1.965 l 0.52,-2.109 c 1.448,1.405 3.186,2.109 5.222,2.109 v -2.423 c -1.973,0 -3.571,-0.697 -4.798,-2.093 L 2.909,0 Z" />
          </g>
          <g
             transform="translate(630.9092,250.4541)"
             id="g957">
            <path
               inkscape:connector-curvature="0"
               id="path959"
               style="fill:#939598;fill-opacity:1;fill-rule:nonzero;stroke:none"
               d="M 0,0 H 8.934 C 8.871,2.894 7.455,4.341 4.687,4.341 1.75,4.341 0.188,2.894 0,0 m 4.687,6.669 c 4.696,0 7.046,-2.324 7.046,-6.97 0,-0.66 -0.048,-1.366 -0.142,-2.122 H 0 c 0,-3.377 1.971,-5.064 5.914,-5.064 1.876,0 3.543,0.209 5.001,0.63 v -2.36 C 9.457,-9.638 7.684,-9.846 5.6,-9.846 c -5.674,0 -8.511,2.814 -8.511,8.445 0,5.379 2.534,8.07 7.598,8.07" />
          </g>
        </g>
      </g>
    </g>
  </g>
</svg>
