<svg xmlns="http://www.w3.org/2000/svg" viewBox="0 0 56.02 48.48"><defs><style>.cls-1{fill:#fff;}</style></defs><title>Asset 1</title><g id="Layer_2" data-name="Layer 2"><g id="Layer_1-2" data-name="Layer 1"><g id="Group_295" data-name="Group 295"><g id="Group_294" data-name="Group 294"><path id="Path_143" data-name="Path 143" class="cls-1" d="M55,29.32A4.65,4.65,0,0,0,56,26.37,4.29,4.29,0,0,0,51.92,22H44a30.89,30.89,0,0,0,1.12-7.47V13a5.7,5.7,0,0,0-5.45-5.9H38.29A1.39,1.39,0,0,0,37,8.23l-.74,3.21c-1,4.5-4.35,9.46-7.77,10.36a4.11,4.11,0,0,0-3.8-2.8H16.48a1.43,1.43,0,0,0-1.37,1.48V47a1.42,1.42,0,0,0,1.37,1.47h8.18A4.08,4.08,0,0,0,28.35,46L33,47.65a14,14,0,0,0,4.75.83H49.2a4.26,4.26,0,0,0,4.09-4.42A4.83,4.83,0,0,0,53,42.43a4.38,4.38,0,0,0,3-4.26,4.65,4.65,0,0,0-1.05-3,4.67,4.67,0,0,0,0-5.9ZM26,44.06a1.42,1.42,0,0,1-1.37,1.47H17.84V22h6.81A1.42,1.42,0,0,1,26,23.43ZM49.2,30.8h2.72a1.47,1.47,0,0,1,0,2.94H49.2a1.48,1.48,0,0,0,0,2.95h2.72a1.48,1.48,0,0,1,0,3H49.2a1.48,1.48,0,0,0-1.37,1.58,1.5,1.5,0,0,0,1.37,1.37,1.47,1.47,0,0,1,0,2.94H37.78a11.46,11.46,0,0,1-3.89-.68L28.74,43V24.76a11,11,0,0,0,6.13-4.3,22.14,22.14,0,0,0,4-8.3l.48-2.1h.3A2.85,2.85,0,0,1,42.38,13v1.47A25.32,25.32,0,0,1,41.08,22H38.29a1.48,1.48,0,0,0,0,2.95H51.93a1.47,1.47,0,0,1,0,2.94H49.2a1.48,1.48,0,0,0,0,2.95Z"/><circle id="Ellipse_53" data-name="Ellipse 53" class="cls-1" cx="19.37" cy="44.22" r="0.85"/><path id="Path_144" data-name="Path 144" class="cls-1" d="M40.13,2.67V.91a.86.86,0,0,0-.8-.91.85.85,0,0,0-.9.79.24.24,0,0,0,0,.12V2.67a.84.84,0,0,0,.79.91.86.86,0,0,0,.91-.79Z"/><path id="Path_145" data-name="Path 145" class="cls-1" d="M32.51,5a.85.85,0,0,0,0-1.2l-1.2-1.2A.85.85,0,0,0,30,3.75l.07.07L31.31,5a.84.84,0,0,0,1.2,0Z"/><path id="Path_146" data-name="Path 146" class="cls-1" d="M49.57,5l1.21-1.2a.86.86,0,0,0,.07-1.21.85.85,0,0,0-1.2-.07.6.6,0,0,0-.08.08l-1.2,1.2a.85.85,0,0,0,0,1.2.86.86,0,0,0,1.21,0Z"/></g><path id="ic_verified_user_24px" data-name="ic verified user 24px" class="cls-1" d="M11.75,5.31,0,10.54v7.83c0,7.24,5,14,11.75,15.66,6.74-1.64,11.75-8.42,11.75-15.66V10.54ZM9.14,26.2,3.92,21l1.84-1.84,3.38,3.37,8.6-8.6,1.84,1.85Z"/></g></g></g></svg>