<?xml version="1.0" encoding="UTF-8" standalone="no"?>
<!-- Created with Inkscape (http://www.inkscape.org/) -->

<svg
   xmlns:dc="http://purl.org/dc/elements/1.1/"
   xmlns:cc="http://creativecommons.org/ns#"
   xmlns:rdf="http://www.w3.org/1999/02/22-rdf-syntax-ns#"
   xmlns:svg="http://www.w3.org/2000/svg"
   xmlns="http://www.w3.org/2000/svg"
   xmlns:sodipodi="http://sodipodi.sourceforge.net/DTD/sodipodi-0.dtd"
   xmlns:inkscape="http://www.inkscape.org/namespaces/inkscape"
   width="8.6494169mm"
   height="8.6525106mm"
   viewBox="0 0 8.6494169 8.6525106"
   version="1.1"
   id="svg2808"
   inkscape:version="0.92.4 (f8dce91, 2019-08-02)"
   sodipodi:docname="all_products.svg">
  <defs
     id="defs2802" />
  <sodipodi:namedview
     id="base"
     pagecolor="#ffffff"
     bordercolor="#666666"
     borderopacity="1.0"
     inkscape:pageopacity="0.0"
     inkscape:pageshadow="2"
     inkscape:zoom="5.6"
     inkscape:cx="-5.6149661"
     inkscape:cy="39.756494"
     inkscape:document-units="mm"
     inkscape:current-layer="layer1"
     showgrid="false"
     fit-margin-top="0"
     fit-margin-left="0"
     fit-margin-right="0"
     fit-margin-bottom="0"
     inkscape:window-width="1366"
     inkscape:window-height="731"
     inkscape:window-x="0"
     inkscape:window-y="0"
     inkscape:window-maximized="1" />
  <metadata
     id="metadata2805">
    <rdf:RDF>
      <cc:Work
         rdf:about="">
        <dc:format>image/svg+xml</dc:format>
        <dc:type
           rdf:resource="http://purl.org/dc/dcmitype/StillImage" />
        <dc:title></dc:title>
      </cc:Work>
    </rdf:RDF>
  </metadata>
  <g
     inkscape:label="Layer 1"
     inkscape:groupmode="layer"
     id="layer1"
     transform="translate(-48.591958,-136.19162)">
    <g
       id="g3372">
      <g
         transform="matrix(0.35277777,0,0,-0.35277777,50.82469,139.6142)"
         id="g242">
        <path
           inkscape:connector-curvature="0"
           id="path244"
           style="fill:#ffffff;fill-opacity:0.75;fill-rule:nonzero;stroke:none"
           d="M 0,0 V 1.482 C -0.369,1.854 -0.366,2.456 0.006,2.826 0.379,3.195 0.98,3.192 1.35,2.82 1.717,2.45 1.717,1.852 1.35,1.482 V 0 Z M -1.075,1.482 V 0 h -2.159 v 1.482 c -10e-4,1.264 1.022,2.29 2.286,2.291 0.231,0 0.462,-0.034 0.682,-0.103 C -0.79,3.062 -1.077,2.285 -1.074,1.482 Z m -3.101,-3.477 -0.612,0.918 h 1.224 z m -0.448,-9.564 -0.629,-0.945 v 10.187 l 0.629,-0.945 c 0.101,-0.149 0.269,-0.239 0.448,-0.24 0.18,0 0.349,0.089 0.447,0.24 l 0.632,0.946 v -10.19 l -0.635,0.953 c -0.184,0.244 -0.532,0.294 -0.776,0.11 -0.045,-0.033 -0.083,-0.073 -0.116,-0.117 z m 1.06,-2.184 h -1.223 l 0.611,0.917 z M 2.427,1.482 C 2.428,2.286 2.14,3.063 1.615,3.671 1.836,3.738 2.064,3.771 2.294,3.771 2.893,3.772 3.468,3.537 3.895,3.117 L 3.994,3.017 4.751,3.786 4.65,3.88 C 3.592,4.921 1.975,5.143 0.676,4.424 -0.95,5.32 -2.994,4.729 -3.891,3.104 -4.166,2.605 -4.31,2.044 -4.309,1.475 V -0.007 H -5.792 C -6.09,-0.008 -6.33,-0.25 -6.329,-0.547 v -13.74 c 0,-0.296 0.24,-0.537 0.537,-0.538 h 8.623 v 1.078 H -2.02 v 12.671 h 0.946 v -1.618 h 1.076 v 1.618 H 2.829 V 0.001 H 2.43 Z" />
      </g>
      <path
         inkscape:connector-curvature="0"
         id="path246"
         style="fill:#ffffff;fill-opacity:0.75;fill-rule:nonzero;stroke:none;stroke-width:0.35277775"
         d="m 53.724701,136.76203 h -0.47625 v -0.1905 h 0.47625 z m 0,1.33103 c -3.44e-4,0.0293 0.0063,0.0582 0.01905,0.0847 l 0.876653,1.75366 0.340077,-0.16968 -0.856191,-1.70286 v -1.67746 c 0,-0.10478 -0.08467,-0.1898 -0.189442,-0.1898 h -0.856544 c -0.10407,3.6e-4 -0.189089,0.085 -0.189442,0.1898 l 0.0049,1.65805 -0.841375,1.68099 c -0.0127,0.0265 -0.01905,0.0557 -0.01905,0.0854 v 4.84823 c 3.44e-4,0.10477 0.08502,0.18979 0.189794,0.18979 h 1.045634 v -0.38029 h -0.855839 l -0.0046,-4.6034 0.841375,-1.68169 c 0.0127,-0.0265 0.0194,-0.055 0.01905,-0.0843 v -0.9525 h 0.475897 z" />
      <g
         transform="matrix(0.35277777,0,0,-0.35277777,56.100482,144.4625)"
         id="g248">
        <path
           inkscape:connector-curvature="0"
           id="path250"
           style="fill:#ffffff;fill-opacity:0.75;fill-rule:nonzero;stroke:none"
           d="M 0,0 V 7.01 H 2.158 V 0.003 Z m 0.153,9.837 -1,-1.753 h -5.229 l 1,1.753 z m -5,1.617 h 5.392 v -0.54 h -5.392 z m 5.24,-3.37 0.689,1.205 0.69,-1.205 z M -1.074,7.007 V 0 h -5.391 v 7.01 z m 4.236,0.812 -1.543,2.663 v 1.509 C 1.62,12.289 1.38,12.53 1.082,12.531 H -5.385 C -5.683,12.53 -5.924,12.289 -5.924,11.991 L -5.906,10.548 -7.47,7.814 C -7.517,7.732 -7.541,7.64 -7.541,7.546 v -8.085 c 0.001,-0.297 0.241,-0.537 0.538,-0.538 h 9.7 c 0.297,10e-4 0.537,0.242 0.537,0.538 V 7.546 C 3.235,7.642 3.21,7.736 3.162,7.819" />
      </g>
    </g>
  </g>
</svg>
