<?xml version="1.0" encoding="UTF-8" standalone="no"?>
<!-- Created with Inkscape (http://www.inkscape.org/) -->

<svg
   xmlns:dc="http://purl.org/dc/elements/1.1/"
   xmlns:cc="http://creativecommons.org/ns#"
   xmlns:rdf="http://www.w3.org/1999/02/22-rdf-syntax-ns#"
   xmlns:svg="http://www.w3.org/2000/svg"
   xmlns="http://www.w3.org/2000/svg"
   xmlns:sodipodi="http://sodipodi.sourceforge.net/DTD/sodipodi-0.dtd"
   xmlns:inkscape="http://www.inkscape.org/namespaces/inkscape"
   width="10.571339mm"
   height="6.7063055mm"
   viewBox="0 0 10.571339 6.7063055"
   version="1.1"
   id="svg4771"
   inkscape:version="0.92.4 (f8dce91, 2019-08-02)"
   sodipodi:docname="blog_home.svg">
  <defs
     id="defs4765" />
  <sodipodi:namedview
     id="base"
     pagecolor="#ffffff"
     bordercolor="#666666"
     borderopacity="1.0"
     inkscape:pageopacity="0.0"
     inkscape:pageshadow="2"
     inkscape:zoom="5.6"
     inkscape:cx="26.850302"
     inkscape:cy="10.951059"
     inkscape:document-units="mm"
     inkscape:current-layer="layer1"
     showgrid="false"
     fit-margin-top="0"
     fit-margin-left="0"
     fit-margin-right="0"
     fit-margin-bottom="0"
     inkscape:window-width="1366"
     inkscape:window-height="731"
     inkscape:window-x="0"
     inkscape:window-y="0"
     inkscape:window-maximized="1" />
  <metadata
     id="metadata4768">
    <rdf:RDF>
      <cc:Work
         rdf:about="">
        <dc:format>image/svg+xml</dc:format>
        <dc:type
           rdf:resource="http://purl.org/dc/dcmitype/StillImage" />
        <dc:title></dc:title>
      </cc:Work>
    </rdf:RDF>
  </metadata>
  <g
     inkscape:label="Layer 1"
     inkscape:groupmode="layer"
     id="layer1"
     transform="translate(-61.994093,-149.25994)">
    <g
       transform="matrix(0.35277777,0,0,-0.35277777,27.825167,580.38941)"
       id="g4763">
      <path
         inkscape:connector-curvature="0"
         id="path140"
         style="fill:#ffffff;fill-opacity:0.75;fill-rule:nonzero;stroke:none"
         d="m 125.5098,1211.8943 c -0.002,-0.723 -0.588,-1.308 -1.31,-1.308 h -12.166 c -0.723,0 -1.309,0.585 -1.31,1.308 v 7.59 c 0.001,0.723 0.587,1.307 1.31,1.308 h 12.166 c 0.722,-10e-4 1.308,-0.585 1.31,-1.308 z m -9.565,-4.579 c 0,-0.144 -0.117,-0.261 -0.261,-0.261 h -13.267 c -0.174,-10e-4 -0.34,-0.07 -0.462,-0.193 l -1.542,-1.542 v 1.08 c 0,0.362 -0.293,0.655 -0.655,0.655 h -1.33 c -0.145,0 -0.262,0.116 -0.263,0.261 v 10.336 c 0.001,0.144 0.118,0.261 0.263,0.261 h 10.989 v -6.019 c 0.002,-1.445 1.173,-2.615 2.618,-2.616 h 3.91 z m 8.256,14.784 h -12.166 c -1.444,-10e-4 -2.616,-1.172 -2.618,-2.616 v -0.263 h -10.989 c -0.867,0 -1.57,-0.702 -1.571,-1.569 v -10.336 c 10e-4,-0.867 0.704,-1.57 1.571,-1.571 h 0.675 v -2 c 0,-0.362 0.294,-0.655 0.656,-0.655 0.172,0 0.338,0.069 0.461,0.191 l 2.468,2.468 h 13 c 0.867,10e-4 1.569,0.704 1.569,1.571 v 1.963 h 6.948 c 1.445,10e-4 2.616,1.171 2.618,2.616 v 7.59 c -0.005,1.444 -1.178,2.612 -2.622,2.611" />
      <path
         inkscape:connector-curvature="0"
         id="path144"
         style="fill:#ffffff;fill-opacity:0.75;fill-rule:nonzero;stroke:none"
         d="m 116.5957,1214.2361 v 2.9 l 2.514,-1.452 z m 4.15,2.018 -4.478,2.586 c -0.314,0.18 -0.714,0.072 -0.894,-0.242 -0.057,-0.099 -0.087,-0.212 -0.087,-0.326 v -5.17 c 0.001,-0.234 0.126,-0.449 0.328,-0.566 0.202,-0.116 0.451,-0.116 0.653,0 l 4.478,2.586 c 0.312,0.181 0.419,0.581 0.238,0.894 -0.057,0.098 -0.139,0.181 -0.238,0.238" />
      <path
         inkscape:connector-curvature="0"
         id="path148"
         style="fill:#ffffff;fill-opacity:0.75;fill-rule:nonzero;stroke:none"
         d="m 107.3569,1215.2312 h -6.541 c -0.362,0 -0.656,-0.292 -0.656,-0.654 -10e-4,-0.362 0.292,-0.656 0.654,-0.656 h 0.002 6.541 c 0.362,0 0.654,0.294 0.654,0.656 -0.001,0.361 -0.293,0.653 -0.654,0.654" />
      <path
         inkscape:connector-curvature="0"
         id="path152"
         style="fill:#ffffff;fill-opacity:0.75;fill-rule:nonzero;stroke:none"
         d="m 107.3569,1211.5671 c -0.361,0 -0.654,-0.293 -0.654,-0.654 0,-0.361 0.293,-0.654 0.654,-0.654 0.361,0 0.654,0.293 0.654,0.654 0,0.174 -0.069,0.34 -0.192,0.463 -0.124,0.121 -0.289,0.19 -0.462,0.191" />
      <path
         inkscape:connector-curvature="0"
         id="path156"
         style="fill:#ffffff;fill-opacity:0.75;fill-rule:nonzero;stroke:none"
         d="m 104.9038,1211.5671 h -4.088 c -0.361,0 -0.654,-0.293 -0.654,-0.654 0,-0.361 0.293,-0.654 0.654,-0.654 h 4.088 c 0.361,0 0.654,0.293 0.654,0.654 0,0.361 -0.293,0.654 -0.654,0.654" />
    </g>
  </g>
</svg>
