<?xml version="1.0" encoding="UTF-8" standalone="no"?>
<!-- Created with Inkscape (http://www.inkscape.org/) -->

<svg
   xmlns:dc="http://purl.org/dc/elements/1.1/"
   xmlns:cc="http://creativecommons.org/ns#"
   xmlns:rdf="http://www.w3.org/1999/02/22-rdf-syntax-ns#"
   xmlns:svg="http://www.w3.org/2000/svg"
   xmlns="http://www.w3.org/2000/svg"
   xmlns:sodipodi="http://sodipodi.sourceforge.net/DTD/sodipodi-0.dtd"
   xmlns:inkscape="http://www.inkscape.org/namespaces/inkscape"
   width="12.168435mm"
   height="14.817036mm"
   viewBox="0 0 12.168435 14.817036"
   version="1.1"
   id="svg6129"
   inkscape:version="0.92.4 (f8dce91, 2019-08-02)"
   sodipodi:docname="children_an_beby_1.svg">
  <defs
     id="defs6123" />
  <sodipodi:namedview
     id="base"
     pagecolor="#ffffff"
     bordercolor="#666666"
     borderopacity="1.0"
     inkscape:pageopacity="0.0"
     inkscape:pageshadow="2"
     inkscape:zoom="2.8"
     inkscape:cx="26.600134"
     inkscape:cy="14.281907"
     inkscape:document-units="mm"
     inkscape:current-layer="layer1"
     showgrid="false"
     fit-margin-top="0"
     fit-margin-left="0"
     fit-margin-right="0"
     fit-margin-bottom="0"
     inkscape:window-width="786"
     inkscape:window-height="414"
     inkscape:window-x="38"
     inkscape:window-y="38"
     inkscape:window-maximized="0" />
  <metadata
     id="metadata6126">
    <rdf:RDF>
      <cc:Work
         rdf:about="">
        <dc:format>image/svg+xml</dc:format>
        <dc:type
           rdf:resource="http://purl.org/dc/dcmitype/StillImage" />
        <dc:title></dc:title>
      </cc:Work>
    </rdf:RDF>
  </metadata>
  <g
     inkscape:label="Layer 1"
     inkscape:groupmode="layer"
     id="layer1"
     transform="translate(-126.9634,-116.47838)">
    <g
       transform="matrix(0.33634078,0,0,-0.33634078,138.17909,129.3922)"
       id="g296">
      <path
         inkscape:connector-curvature="0"
         id="path298"
         style="fill:#6dbe5f;fill-opacity:1;fill-rule:nonzero;stroke:none"
         d="m 0,0 c -0.535,-1.772 -2.18,-2.974 -4.031,-2.946 -0.368,0 -0.736,0.047 -1.092,0.14 -1.083,0.264 -2.012,0.958 -2.573,1.922 -0.514,0.881 -0.649,1.933 -0.373,2.915 0.534,1.908 2.189,4.86 4.48,5.247 l 0.026,0.006 c 0.158,0.025 0.317,0.038 0.477,0.038 C -2.814,7.32 -2.544,7.285 -2.281,7.217 -1.463,7.021 -0.766,6.488 -0.364,5.749 0.441,3.938 0.57,1.897 -0.002,0 Z m -15.056,-1.508 c -2.016,0.003 -3.983,0.622 -5.638,1.774 0.095,0.725 0.041,1.461 -0.158,2.165 -0.6,2.132 -2.278,5.116 -4.777,6.133 -0.177,1.338 -0.145,2.696 0.094,4.025 0.08,0.447 -0.217,0.874 -0.664,0.954 -0.066,0.012 -0.134,0.016 -0.201,0.011 -0.075,-0.006 -0.151,-0.01 -0.227,-0.01 -1.585,-0.094 -2.947,1.116 -3.04,2.701 -0.094,1.586 1.116,2.947 2.701,3.041 0.113,0.006 0.226,0.006 0.339,0 0.787,0.005 1.547,-0.288 2.126,-0.821 0.886,-1.174 1.988,-2.169 3.247,-2.929 -2.219,-3.423 -1.243,-7.996 2.18,-10.216 3.423,-2.219 7.996,-1.243 10.215,2.18 1.585,2.444 1.585,5.591 0,8.036 1.259,0.76 2.361,1.755 3.247,2.929 0.58,0.533 1.34,0.826 2.127,0.821 1.586,0.093 2.947,-1.116 3.041,-2.702 0.093,-1.585 -1.116,-2.947 -2.702,-3.04 -0.113,-0.007 -0.226,-0.007 -0.339,0 -0.076,0 -0.154,0 -0.228,0.01 -0.453,0.03 -0.846,-0.312 -0.876,-0.765 -0.005,-0.067 -10e-4,-0.134 0.01,-0.2 C -4.35,11.324 -4.31,10.032 -4.46,8.755 -7.187,7.919 -9.022,4.724 -9.652,2.475 -9.876,1.682 -9.915,0.848 -9.766,0.038 c -1.582,-1.006 -3.416,-1.542 -5.291,-1.546 z m -15.446,1.464 c -0.571,1.898 -0.442,3.938 0.364,5.748 0.403,0.738 1.099,1.272 1.917,1.468 0.264,0.068 0.535,0.103 0.808,0.105 0.272,-0.001 0.543,-0.037 0.806,-0.109 l 0.038,-0.011 c 2.114,-0.6 3.632,-3.357 4.139,-5.17 0.277,-0.982 0.142,-2.034 -0.373,-2.915 -0.562,-0.964 -1.49,-1.658 -2.573,-1.924 -0.267,-0.067 -0.54,-0.11 -0.815,-0.128 -0.092,-0.006 -0.184,-0.01 -0.276,-0.01 -1.851,-0.029 -3.498,1.173 -4.035,2.946 m 15.445,23.14 c -0.635,0.086 -1.132,0.592 -1.207,1.229 0,0.08 0,0.113 0.136,0.18 0.696,0.219 1.443,0.219 2.14,0 0.136,-0.067 0.136,-0.1 0.136,-0.18 -0.072,-0.638 -0.568,-1.146 -1.205,-1.231 z M -9.311,11.523 C -9.315,8.668 -11.412,6.249 -14.236,5.838 v 2.483 c 0,0.453 -0.368,0.822 -0.822,0.822 -0.453,0 -0.821,-0.369 -0.821,-0.822 V 5.833 c -3.138,0.45 -5.316,3.357 -4.867,6.495 0.126,0.88 0.455,1.719 0.961,2.45 3.02,-1.284 6.433,-1.284 9.454,0 0.663,-0.957 1.018,-2.093 1.02,-3.257 z m -18.483,20.845 c 0.055,1.907 1.642,3.412 3.55,3.363 1.377,0.014 2.64,-0.764 3.245,-2 0.193,-0.41 0.682,-0.586 1.091,-0.393 0.011,0.005 0.022,0.01 0.033,0.016 3.021,1.569 6.616,1.569 9.637,0 0.402,-0.211 0.898,-0.057 1.109,0.344 0.006,0.011 0.011,0.022 0.016,0.033 0.606,1.237 1.868,2.015 3.245,2 1.908,0.048 3.495,-1.456 3.551,-3.363 -0.016,-1.317 -0.801,-2.502 -2.007,-3.03 -0.195,0.445 -0.42,0.876 -0.672,1.292 -0.259,0.371 -0.771,0.463 -1.143,0.203 -0.339,-0.237 -0.449,-0.689 -0.257,-1.055 0.335,-0.55 0.612,-1.133 0.827,-1.74 l 0.017,-0.044 c 0.333,-0.965 0.502,-1.979 0.5,-3 -0.116,-5.077 -4.112,-9.214 -9.181,-9.506 v 6.1 c 1.162,0.421 1.96,1.495 2.027,2.73 0,0.6 -0.277,1.987 -2.849,1.987 -2.57,0 -2.847,-1.384 -2.847,-1.984 0.069,-1.234 0.866,-2.309 2.028,-2.73 v -6.1 c -5.069,0.292 -9.065,4.429 -9.182,9.506 -10e-4,1.035 0.175,2.064 0.519,3.04 0.151,0.428 -0.073,0.898 -0.502,1.048 -0.026,0.009 -0.053,0.017 -0.08,0.024 -1.538,0.335 -2.645,1.683 -2.675,3.257 z M 1.058,6.568 c -0.621,1.122 -1.684,1.934 -2.931,2.238 -0.3,0.078 -0.607,0.127 -0.917,0.147 0.04,0.438 0.061,0.88 0.061,1.321 -10e-4,0.559 -0.035,1.119 -0.1,1.675 2.475,0.263 4.266,2.482 4.003,4.956 -0.251,2.361 -2.291,4.121 -4.663,4.025 -0.25,0 -0.5,-0.02 -0.748,-0.059 0.907,2.192 1.068,4.623 0.457,6.916 1.863,0.762 3.085,2.568 3.1,4.581 -0.058,2.812 -2.379,5.047 -5.192,5 -1.713,0.007 -3.323,-0.821 -4.316,-2.219 -3.105,1.363 -6.639,1.363 -9.745,0 -0.991,1.398 -2.601,2.226 -4.315,2.219 -2.812,0.047 -5.133,-2.188 -5.191,-5 0.015,-2.013 1.237,-3.819 3.1,-4.581 -0.613,-2.293 -0.453,-4.724 0.457,-6.916 -0.248,0.039 -0.498,0.059 -0.748,0.059 -2.486,0.102 -4.584,-1.83 -4.686,-4.317 -0.098,-2.372 1.663,-4.413 4.025,-4.664 -0.065,-0.556 -0.099,-1.116 -0.1,-1.675 0,-0.454 0.023,-0.907 0.063,-1.357 h -0.094 c -0.411,-10e-4 -0.819,-0.054 -1.216,-0.157 -1.246,-0.305 -2.308,-1.116 -2.929,-2.238 -1.032,-2.193 -1.218,-4.689 -0.523,-7.01 0.735,-2.48 3.025,-4.171 5.611,-4.144 0.112,0 0.221,0 0.33,0.01 h 0.016 0.021 0.024 c 2.105,0.104 3.991,1.333 4.938,3.216 3.637,-2.281 8.245,-2.336 11.935,-0.142 0.029,-0.055 0.057,-0.109 0.088,-0.163 0.782,-1.347 2.076,-2.318 3.588,-2.691 0.49,-0.126 0.994,-0.19 1.5,-0.19 2.586,-0.027 4.876,1.665 5.613,4.144 0.697,2.323 0.513,4.82 -0.516,7.016" />
    </g>
    <g
       transform="matrix(0.35277777,0,0,-0.35277777,134.95995,120.59066)"
       id="g300">
      <path
         inkscape:connector-curvature="0"
         id="path302"
         style="fill:#6dbe5f;fill-opacity:1;fill-rule:nonzero;stroke:none"
         d="M 0,0 C 0.63,0.027 1.118,0.56 1.09,1.19 1.062,1.819 0.53,2.307 -0.1,2.28 -0.709,2.253 -1.19,1.751 -1.191,1.141 -1.176,0.498 -0.644,-0.013 0,0" />
    </g>
    <g
       transform="matrix(0.35277777,0,0,-0.35277777,131.27765,120.59066)"
       id="g304">
      <path
         inkscape:connector-curvature="0"
         id="path306"
         style="fill:#6dbe5f;fill-opacity:1;fill-rule:nonzero;stroke:none"
         d="M 0,0 C 0.63,0.027 1.118,0.56 1.09,1.19 1.062,1.819 0.53,2.307 -0.1,2.28 -0.709,2.253 -1.19,1.751 -1.191,1.141 -1.175,0.498 -0.643,-0.012 0,0" />
    </g>
    <g
       transform="matrix(0.35277777,0,0,-0.35277777,135.72339,118.25213)"
       id="g308">
      <path
         inkscape:connector-curvature="0"
         id="path310"
         style="fill:#6dbe5f;fill-opacity:1;fill-rule:nonzero;stroke:none"
         d="m 0,0 c 0.278,-0.278 0.729,-0.278 1.006,0 0.278,0.278 0.278,0.729 0,1.007 L 0.989,1.024 C 0.716,1.306 0.266,1.314 -0.017,1.041 -0.299,0.768 -0.306,0.318 -0.033,0.036 c 0.01,-0.011 0.019,-0.02 0.03,-0.03 z" />
    </g>
    <g
       transform="matrix(0.35277777,0,0,-0.35277777,132.86741,125.89781)"
       id="g312">
      <path
         inkscape:connector-curvature="0"
         id="path314"
         style="fill:#6dbe5f;fill-opacity:1;fill-rule:nonzero;stroke:none"
         d="m 0,0 v -0.017 c 0.014,-0.393 0.344,-0.7 0.737,-0.686 0.373,0.013 0.673,0.312 0.686,0.686 V 0 C 1.409,0.393 1.079,0.7 0.686,0.686 0.312,0.673 0.013,0.373 0,0" />
    </g>
  </g>
</svg>
