<svg xmlns="http://www.w3.org/2000/svg" viewBox="0 0 47.28 49.26"><defs><style>.cls-1{fill:#fff;}</style></defs><title>Asset 3</title><g id="Layer_2" data-name="Layer 2"><g id="Layer_1-2" data-name="Layer 1"><g id="Group_299" data-name="Group 299"><path id="Path_155" data-name="Path 155" class="cls-1" d="M29.56,31a1.48,1.48,0,0,0,0,3,1.5,1.5,0,0,0,1.48-1.49h0A1.49,1.49,0,0,0,29.56,31Z"/><path id="Path_156" data-name="Path 156" class="cls-1" d="M17.73,18.24a1.48,1.48,0,1,0-1.48-1.48A1.49,1.49,0,0,0,17.73,18.24Z"/><path id="Path_157" data-name="Path 157" class="cls-1" d="M45,25.27A1.42,1.42,0,0,1,45,24l1.84-3.76A4.27,4.27,0,0,0,45,14.56l-3.7-2a1.47,1.47,0,0,1-.75-1l-.72-4.12A4.27,4.27,0,0,0,35,3.94l-4.14.58a1.41,1.41,0,0,1-1.22-.4l-3-2.9a4.26,4.26,0,0,0-6,0l-3,2.9a1.44,1.44,0,0,1-1.22.4l-4.14-.59A4.29,4.29,0,0,0,7.46,7.44l-.72,4.12a1.47,1.47,0,0,1-.75,1l-3.7,2A4.27,4.27,0,0,0,.44,20.23L2.28,24a1.44,1.44,0,0,1,0,1.28L.44,29a4.28,4.28,0,0,0,1.85,5.68l3.7,2a1.47,1.47,0,0,1,.75,1l.72,4.12a4.27,4.27,0,0,0,4.22,3.56,4.18,4.18,0,0,0,.61-.05l4.15-.58a1.43,1.43,0,0,1,1.21.39l3,2.91a4.27,4.27,0,0,0,6,0l3-2.91a1.45,1.45,0,0,1,1.22-.39l4.14.58a4.27,4.27,0,0,0,4.83-3.51l.72-4.12a1.47,1.47,0,0,1,.75-1l3.7-2A4.27,4.27,0,0,0,46.84,29ZM18,11.85a5.21,5.21,0,1,1-5.21,5.21h0A5.23,5.23,0,0,1,18,11.85ZM15.27,35a1.42,1.42,0,0,1-2-2L32,14.26a1.42,1.42,0,1,1,2,2Zm14.06,2.4a5.21,5.21,0,1,1,5.21-5.21,5.21,5.21,0,0,1-5.21,5.21Z"/></g></g></g></svg>