<?xml version="1.0" encoding="UTF-8" standalone="no"?>
<svg
   xmlns:dc="http://purl.org/dc/elements/1.1/"
   xmlns:cc="http://creativecommons.org/ns#"
   xmlns:rdf="http://www.w3.org/1999/02/22-rdf-syntax-ns#"
   xmlns:svg="http://www.w3.org/2000/svg"
   xmlns="http://www.w3.org/2000/svg"
   xmlns:sodipodi="http://sodipodi.sourceforge.net/DTD/sodipodi-0.dtd"
   xmlns:inkscape="http://www.inkscape.org/namespaces/inkscape"
   sodipodi:docname="foods_drink.svg"
   inkscape:version="1.0alpha2 (1:0.92.0+devel+201907090511+74dcc2b)"
   id="svg3000"
   version="1.1"
   viewBox="0 0 14.320198 14.817171"
   height="14.817171mm"
   width="14.320198mm">
  <defs
     id="defs2994" />
  <sodipodi:namedview
     inkscape:window-maximized="1"
     inkscape:window-y="27"
     inkscape:window-x="1405"
     inkscape:window-height="713"
     inkscape:window-width="1327"
     fit-margin-bottom="0"
     fit-margin-right="0"
     fit-margin-left="0"
     fit-margin-top="0"
     showgrid="false"
     inkscape:document-rotation="0"
     inkscape:current-layer="layer1"
     inkscape:document-units="mm"
     inkscape:cy="153.45855"
     inkscape:cx="178.15649"
     inkscape:zoom="1.4"
     inkscape:pageshadow="2"
     inkscape:pageopacity="0.0"
     borderopacity="1.0"
     bordercolor="#666666"
     pagecolor="#ffffff"
     id="base" />
  <metadata
     id="metadata2997">
    <rdf:RDF>
      <cc:Work
         rdf:about="">
        <dc:format>image/svg+xml</dc:format>
        <dc:type
           rdf:resource="http://purl.org/dc/dcmitype/StillImage" />
        <dc:title></dc:title>
      </cc:Work>
    </rdf:RDF>
  </metadata>
  <g
     transform="translate(165.15353,8.9204902)"
     id="layer1"
     inkscape:groupmode="layer"
     inkscape:label="Layer 1">
    <g
       transform="matrix(0.32165516,0,0,-0.32165516,-161.26382,-3.5323543)"
       id="g692">
      <path
         inkscape:connector-curvature="0"
         id="path694"
         style="fill:#6dbe5f;fill-opacity:1;fill-rule:nonzero;stroke:none"
         d="M 0,0 V 2.072 H 2.072 C 3.94,2.07 5.454,0.557 5.456,-1.311 v -2.07 H 3.383 C 1.517,-3.378 0.003,-1.867 0,0 M 6.321,6.7 7.786,8.165 9.25,6.7 c 1.318,-1.322 1.318,-3.461 0,-4.783 L 7.786,0.452 6.321,1.917 c -1.318,1.322 -1.318,3.461 0,4.783 m 9.261,-4.625 v -2.07 c -0.001,-1.867 -1.514,-3.38 -3.381,-3.383 h -2.072 v 2.072 c 0.003,1.868 1.517,3.38 3.384,3.381 z M 6.233,-4.937 c 0.43,0 0.779,0.348 0.779,0.777 v 0.002 2.849 c 0,0.117 -0.009,0.231 -0.016,0.345 l 0.24,-0.24 c 0.303,-0.303 0.795,-0.304 1.099,-0.001 0,0 0,0.001 10e-4,0.001 l 0.252,0.252 C 8.581,-1.069 8.572,-1.188 8.572,-1.309 V -4.158 C 8.571,-4.587 8.919,-4.936 9.349,-4.937 h 0.003 2.849 c 2.728,0.003 4.938,2.213 4.942,4.94 v 2.851 c 0,0.431 -0.349,0.779 -0.779,0.779 H 16.363 13.512 C 12.886,3.632 12.267,3.512 11.687,3.278 12.036,4.914 11.534,6.616 10.353,7.8 L 8.337,9.816 c -0.304,0.303 -0.796,0.303 -1.1,0 L 5.221,7.8 C 4.039,6.619 3.537,4.919 3.887,3.285 3.31,3.515 2.694,3.634 2.074,3.635 h -2.851 c -0.431,0 -0.779,-0.349 -0.78,-0.779 V 0.01 c 0.004,-2.727 2.214,-4.938 4.941,-4.942 z" />
    </g>
    <g
       transform="matrix(0.32165516,0,0,-0.32165516,-158.0058,0.00318253)"
       id="g696">
      <path
         inkscape:connector-curvature="0"
         id="path698"
         style="fill:#6dbe5f;fill-opacity:1;fill-rule:nonzero;stroke:none"
         d="m 0,0 c -1.29,-0.002 -2.335,-1.048 -2.338,-2.338 h 1.559 c 0,0.43 0.349,0.779 0.78,0.779 0.43,0 0.779,-0.349 0.779,-0.779 H 2.339 C 2.337,-1.048 1.292,-0.002 0.001,0 Z" />
    </g>
    <g
       transform="matrix(0.32165516,0,0,-0.32165516,-156.00096,0.25384847)"
       id="g700">
      <path
         inkscape:connector-curvature="0"
         id="path702"
         style="fill:#6dbe5f;fill-opacity:1;fill-rule:nonzero;stroke:none"
         d="m 0,0 c -1.29,-0.001 -2.335,-1.047 -2.336,-2.338 h 1.556 c 0,0.431 0.349,0.78 0.78,0.78 0.43,0 0.779,-0.349 0.779,-0.78 h 1.559 c 0,1.291 -1.046,2.337 -2.337,2.338 z" />
    </g>
    <path
       inkscape:connector-curvature="0"
       id="path706"
       style="fill:#6dbe5f;fill-opacity:1;fill-rule:nonzero;stroke:none;stroke-width:0.321654"
       d="m -156.1723,4.7411634 c -0.82473,3.137e-4 -1.63143,-0.2431713 -2.31817,-0.700244 -0.0322,-0.020907 -0.0644,-0.043428 -0.0939,-0.064326 -0.072,-0.050175 -0.14185,-0.1029297 -0.21005,-0.1569681 -0.0254,-0.02026 -0.0511,-0.038924 -0.0749,-0.06015 -0.0891,-0.074301 -0.17499,-0.1524649 -0.25734,-0.2341648 -0.0148,-0.015755 -0.0299,-0.032167 -0.0447,-0.046637 -0.0811,-0.083309 -0.16083,-0.1682259 -0.23418,-0.257324 l -0.0135,-0.015766 c -0.08,-0.096497 -0.15536,-0.1987832 -0.22516,-0.3033214 l -0.0254,-0.038276 c -0.1396,-0.2093982 -0.26021,-0.4310187 -0.36025,-0.6619667 l -0.0248,-0.057898 c -0.0473,-0.1132228 -0.0901,-0.2290187 -0.12674,-0.3467439 -0.005,-0.014151 -0.009,-0.029915 -0.0135,-0.044385 -0.0322,-0.1074331 -0.0602,-0.2167954 -0.084,-0.3271234 -0.005,-0.021873 -0.0106,-0.043428 -0.0151,-0.06594 -0.0112,-0.057898 -0.0173,-0.1164395 -0.0264,-0.1740156 0.96207,0.4992087 2.95055,0.650708 4.15128,0.650708 1.20074,0 3.18826,-0.1514993 4.14936,-0.650708 -0.32005,2.0447616 -2.07982,3.5533245 -4.14936,3.5568631 z m -3.17023,-0.7279055 h -2.92128 V -7.7654328 h 7.26619 v 4.6659296 l -0.61114,2.29147153 c -0.18463,-0.006109 -0.37216,-0.009649 -0.56354,-0.009649 -1.62822,0 -4.70807,0.27758849 -4.70807,1.32682755 v 0.0263759 c 3.1e-4,0.16340073 0.009,0.3268024 0.0254,0.48923752 0.005,0.047923 0.0161,0.094567 0.0222,0.1418499 0.0148,0.11258 0.0299,0.2251592 0.0534,0.3348434 0.0128,0.062402 0.0322,0.1222293 0.0473,0.1839868 0.0232,0.092315 0.0447,0.1846297 0.0733,0.2746933 0.0234,0.071411 0.0515,0.1412072 0.0772,0.2110056 0.0286,0.076553 0.0554,0.1531086 0.0875,0.2274103 0.0328,0.074301 0.0708,0.1492481 0.10712,0.2251592 0.0325,0.064335 0.0647,0.131235 0.0997,0.1929924 0.0415,0.075915 0.0875,0.1479616 0.13349,0.2206559 0.0376,0.059184 0.0743,0.1186908 0.11354,0.1756231 0.0482,0.069797 0.10036,0.1373476 0.15312,0.2048949 0.045,0.056931 0.0894,0.1141874 0.1367,0.1695123 0.0473,0.055327 0.10582,0.1193336 0.16082,0.1772315 0.055,0.057898 0.11194,0.1164396 0.17048,0.1727292 0.027,0.024764 0.0502,0.051789 0.0766,0.076553 z m -3.43013,-0.1305922 -1.24706,-0.5358777 V -7.7654328 h 1.24706 z m 8.52675,-7.889558 h 0.49246 l -0.92251,3.46004476 -0.14925,0.57351101 c -0.0347,0.13380841 0.0453,0.27083357 0.17916,0.30557233 0.0213,0.005471 0.0425,0.008042 0.0644,0.008361 0.11386,0 0.21357,-0.0771975 0.24252,-0.18752493 l 0.0939,-0.36250541 c 1.71121,0.20199931 2.28086,0.59731362 2.28086,0.71761275 0,0.2460662 -1.43136,0.82568919 -4.20661,0.82568919 -2.77523,0 -4.20692,-0.57897982 -4.20692,-0.82568919 0,-0.24670965 1.43136,-0.82568895 4.20692,-0.82568895 0.14765,0 0.28949,0.006109 0.43456,0.009649 l -0.0463,0.18623831 c -0.0337,0.13413018 0.0473,0.2705119 0.18142,0.30460749 0.02,0.005142 0.0406,0.007723 0.0614,0.007395 0.11451,-3.1356e-4 0.21455,-0.0784841 0.24253,-0.18977637628 l 0.12319,-0.48795099372 0.92155,-3.45554119 c 0.005,-0.020908 0.008,-0.042459 0.008,-0.064331 z m 0.12866,3.30758018 0.86461,-3.24228408 c 0.005,-0.020908 0.008,-0.042459 0.008,-0.064331 3.2e-4,-0.2766233 -0.22387,-0.5011386 -0.5005,-0.5014602 h -0.50146 c -0.0882,3.136e-4 -0.17466,0.023803 -0.25056,0.068191 v -3.5771271 c 1e-5,-0.1383117 -0.11257,-0.2505693 -0.25088,-0.2505693 h -7.76733 -0.004 -0.004 -1.74884 c -0.13831,0 -0.25056,0.1122576 -0.25056,0.2505693 v 11.528121 c 3.1e-4,0.1000348 0.0598,0.1907413 0.15182,0.2303052 l 1.74851,0.7513865 c 0.0312,0.013513 0.065,0.020588 0.0991,0.020907 h 0.005 0.003 3.83735 c 2.19369,1.387621 5.09695,0.7346609 6.48457,-1.4590278 0.47733,-0.7542806 0.72983,-1.6285393 0.72823,-2.5211329 V 0.5088242 c 0,-0.74816991 -1.54748,-1.07239833 -2.65238,-1.20845846 z" />
  </g>
</svg>
