<svg xmlns="http://www.w3.org/2000/svg" viewBox="0 0 54.77 39.94"><defs><style>.cls-1{fill:#fff;}</style></defs><title>Asset 2</title><g id="Layer_2" data-name="Layer 2"><g id="Layer_1-2" data-name="Layer 1"><g id="Group_297" data-name="Group 297"><path id="Path_147" data-name="Path 147" class="cls-1" d="M18.39,5.35a.5.5,0,0,0,.31-.65.51.51,0,0,0-.65-.31l0,0L14.47,5.83a12.39,12.39,0,0,0,2.56-2A2.37,2.37,0,1,0,13.31.9L13.26,1a20.36,20.36,0,0,0-1.83,4.39A20.4,20.4,0,0,0,9.59,1,2.37,2.37,0,1,0,5.82,3.84a12.39,12.39,0,0,0,2.56,2L4.84,4.41a.52.52,0,0,0-.67.28.51.51,0,0,0,.29.66h0L8.69,7h5.48Zm-9-.08a11.62,11.62,0,0,1-2.78-2A1.35,1.35,0,0,1,8.78,1.58,22.19,22.19,0,0,1,10.55,6Zm4.66-3.69a1.35,1.35,0,0,1,2.15,1.64,11.62,11.62,0,0,1-2.78,2L12.3,6a22.19,22.19,0,0,1,1.77-4.38Z"/><g id="Group_296" data-name="Group 296"><path id="Path_148" data-name="Path 148" class="cls-1" d="M19.28,18.69a1,1,0,0,0-.66.21,1.07,1.07,0,0,0-.38.57h1.89a.69.69,0,0,0-.23-.57A.83.83,0,0,0,19.28,18.69Z"/><path id="Path_149" data-name="Path 149" class="cls-1" d="M52.91,28.08V25a3.82,3.82,0,0,0-3.65-4h0l-2.54-.44-4.33-7.1c-.05-.06-.1-.19-.18-.25a3.64,3.64,0,0,0-3-1.65H31V9a2.15,2.15,0,0,0-1.92-2.28H1.92A2.12,2.12,0,0,0,0,9v24.2a2.15,2.15,0,0,0,2.05,2.27h3a5.7,5.7,0,0,0,5.43,4.42,5.76,5.76,0,0,0,5.4-4.42h23.4a5.68,5.68,0,0,0,5.4,4.42,5.76,5.76,0,0,0,5.4-4.42h2.59a2.2,2.2,0,0,0,2.09-2.28V30.36A2.29,2.29,0,0,0,52.91,28.08Zm-47-4.9,1.39-7.59h5.27L12.27,17H8.62l-.37,2h3.24l-.27,1.41H8L7.5,23.18Zm4.61,13.66a3,3,0,0,1-2.82-3.06,3,3,0,0,1,2.82-3.07,3.08,3.08,0,0,1,0,6.13Zm5.32-18a1.67,1.67,0,0,0-1.13.38,2.12,2.12,0,0,0-.57,1.18l-.52,2.82H12l1.06-5.83h1.47l-.13.69a2.17,2.17,0,0,1,.84-.6,3.31,3.31,0,0,1,1.16-.18l-.27,1.56-.36,0ZM22,20.72h-4.1c.05.8.51,1.19,1.38,1.19a2.14,2.14,0,0,0,1.44-.54l.64,1.12a3.06,3.06,0,0,1-1,.59,3.85,3.85,0,0,1-1.22.2A3.17,3.17,0,0,1,17.64,23a2.34,2.34,0,0,1-.95-.92,2.76,2.76,0,0,1-.33-1.38,3.64,3.64,0,0,1,.4-1.74,3,3,0,0,1,1.12-1.21,3,3,0,0,1,1.63-.44,2.66,2.66,0,0,1,1.35.31,2.12,2.12,0,0,1,.88.9,2.81,2.81,0,0,1,.32,1.36,4.48,4.48,0,0,1-.09.89Zm6.25,0h-4.1c.06.8.52,1.19,1.39,1.19a2.09,2.09,0,0,0,1.43-.54l.65,1.12a3.11,3.11,0,0,1-1,.59,3.84,3.84,0,0,1-1.21.2A3.14,3.14,0,0,1,23.9,23a2.3,2.3,0,0,1-1-.92,2.87,2.87,0,0,1-.33-1.38,3.76,3.76,0,0,1,.4-1.74,3,3,0,0,1,1.12-1.21,3,3,0,0,1,1.63-.44,2.63,2.63,0,0,1,1.35.31,2.2,2.2,0,0,1,.89.9,2.8,2.8,0,0,1,.31,1.36,4.48,4.48,0,0,1-.09.89Zm6.64,0v0a.29.29,0,0,1-.27-.3V14.85a.28.28,0,0,1,.27-.28h4.46a.24.24,0,0,1,.22.11L43,20.32a.29.29,0,0,1-.11.4l-.12,0Zm9.83,16.08a2.94,2.94,0,0,1-2.81-3.06,3,3,0,0,1,2.81-3.07,3,3,0,0,1,2.82,3.07,3,3,0,0,1-2.82,3.06Z"/><path id="Path_150" data-name="Path 150" class="cls-1" d="M25.63,18.69a1,1,0,0,0-.66.21,1,1,0,0,0-.38.57h1.89a.72.72,0,0,0-.23-.57A.84.84,0,0,0,25.63,18.69Z"/></g></g></g></g></svg>