<?xml version="1.0" encoding="UTF-8" standalone="no"?>
<svg
   xmlns:dc="http://purl.org/dc/elements/1.1/"
   xmlns:cc="http://creativecommons.org/ns#"
   xmlns:rdf="http://www.w3.org/1999/02/22-rdf-syntax-ns#"
   xmlns:svg="http://www.w3.org/2000/svg"
   xmlns="http://www.w3.org/2000/svg"
   xmlns:sodipodi="http://sodipodi.sourceforge.net/DTD/sodipodi-0.dtd"
   xmlns:inkscape="http://www.inkscape.org/namespaces/inkscape"
   sodipodi:docname="icon_discount_header.svg"
   inkscape:version="1.0alpha2 (1:0.92.0+devel+201907090511+74dcc2b)"
   id="svg3182"
   version="1.1"
   viewBox="0 0 13.128963 13.679362"
   height="13.679362mm"
   width="13.128963mm">
  <defs
     id="defs3176">
    <clipPath
       id="clipPath920"
       clipPathUnits="userSpaceOnUse">
      <path
         inkscape:connector-curvature="0"
         id="path918"
         d="m 525.863,961.065 h 48.222 v -20.088 h -48.222 z" />
    </clipPath>
    <clipPath
       id="clipPath924"
       clipPathUnits="userSpaceOnUse">
      <path
         inkscape:connector-curvature="0"
         id="path922"
         d="m 525.863,961.065 h 48.222 v -20.088 h -48.222 z" />
    </clipPath>
  </defs>
  <sodipodi:namedview
     inkscape:window-maximized="1"
     inkscape:window-y="27"
     inkscape:window-x="1405"
     inkscape:window-height="713"
     inkscape:window-width="1327"
     fit-margin-bottom="0"
     fit-margin-right="0"
     fit-margin-left="0"
     fit-margin-top="0"
     showgrid="false"
     inkscape:document-rotation="0"
     inkscape:current-layer="layer1"
     inkscape:document-units="mm"
     inkscape:cy="30.546222"
     inkscape:cx="33.580766"
     inkscape:zoom="7.9195959"
     inkscape:pageshadow="2"
     inkscape:pageopacity="0.0"
     borderopacity="1.0"
     bordercolor="#666666"
     pagecolor="#ffffff"
     id="base" />
  <metadata
     id="metadata3179">
    <rdf:RDF>
      <cc:Work
         rdf:about="">
        <dc:format>image/svg+xml</dc:format>
        <dc:type
           rdf:resource="http://purl.org/dc/dcmitype/StillImage" />
        <dc:title></dc:title>
      </cc:Work>
    </rdf:RDF>
  </metadata>
  <g
     transform="translate(-98.433158,-131.49961)"
     id="layer1"
     inkscape:groupmode="layer"
     inkscape:label="Layer 1">
    <g
       transform="matrix(0.30325116,0,0,-0.30325116,106.46638,139.68762)"
       id="g942">
      <path
         inkscape:connector-curvature="0"
         id="path944"
         style="fill:#f06060;fill-opacity:1;fill-rule:nonzero;stroke:none"
         d="m 0,0 c -1.115,0 -2.019,-0.904 -2.019,-2.02 0.001,-1.115 0.906,-2.018 2.021,-2.018 1.115,0.001 2.019,0.905 2.018,2.02 C 2.019,-0.903 1.114,0 0,0" />
    </g>
    <g
       transform="matrix(0.30325116,0,0,-0.30325116,103.52772,136.99417)"
       id="g946">
      <path
         inkscape:connector-curvature="0"
         id="path948"
         style="fill:#f06060;fill-opacity:1;fill-rule:nonzero;stroke:none"
         d="M 0,0 C 1.115,0 2.02,0.903 2.021,2.019 2.021,3.134 1.117,4.038 0.002,4.038 -1.113,4.039 -2.018,3.136 -2.018,2.021 -2.016,0.906 -1.113,0.004 0,0" />
    </g>
    <path
       inkscape:connector-curvature="0"
       id="path952"
       style="fill:#f06060;fill-opacity:1;fill-rule:nonzero;stroke:none;stroke-width:0.303251"
       d="m 106.46638,141.64541 c -0.74387,-2.9e-4 -1.34644,-0.60318 -1.34644,-1.34705 2.9e-4,-0.74386 0.60316,-1.34674 1.34704,-1.34643 0.74358,0 1.34614,0.60257 1.34614,1.34643 2.9e-4,0.74419 -0.60256,1.34735 -1.34674,1.34796 z m -3.63325,-0.62197 c -0.14739,0.1398 -0.37998,0.13374 -0.51948,-0.0137 -0.13464,-0.14162 -0.13464,-0.36419 0,-0.50612 l 4.84808,-4.84807 c 0.14374,-0.14344 0.37603,-0.14344 0.51947,2.9e-4 0.14343,0.14344 0.14343,0.37603 -3e-4,0.51947 z m 0.69474,-5.98951 c 0.74388,-3e-4 1.34704,0.60255 1.34735,1.34643 2.9e-4,0.74388 -0.60226,1.34675 -1.34613,1.34734 -0.74388,3.1e-4 -1.34705,-0.60225 -1.34736,-1.34613 v -8.6e-4 c 0.002,-0.74296 0.60348,-1.34461 1.34645,-1.34522 z m 6.99055,3.4704 c -0.051,-0.10401 -0.051,-0.22622 0,-0.32993 l 0.4752,-0.9704 c 0.26594,-0.53798 0.054,-1.18936 -0.47732,-1.46804 l -0.95494,-0.50704 c -0.10251,-0.0544 -0.17406,-0.15284 -0.19409,-0.26687 l -0.1865,-1.06561 c -0.10127,-0.59104 -0.65533,-0.99376 -1.24909,-0.90734 l -1.07108,0.15163 c -0.11463,0.0163 -0.23077,-0.0215 -0.31356,-0.10279 l -0.77783,-0.75116 c -0.42911,-0.41909 -1.11445,-0.41909 -1.54356,0 l -0.77754,0.75175 c -0.0831,0.081 -0.19863,0.11857 -0.31295,0.1022 l -1.07139,-0.15163 c -0.59377,-0.0867 -1.14811,0.31599 -1.24878,0.90734 l -0.18741,1.06561 c -0.0191,0.11403 -0.0909,0.21289 -0.19348,0.26687 l -0.955844,0.50704 c -0.53069,0.27899 -0.742359,0.93006 -0.476712,1.46804 l 0.474892,0.9704 c 0.05186,0.10371 0.05186,0.22592 0,0.32993 l -0.474892,0.97041 c -0.265647,0.53766 -0.05397,1.18935 0.476712,1.46865 l 0.955844,0.50672 c 0.10251,0.0544 0.17437,0.15284 0.19348,0.26687 l 0.18741,1.06562 c 0.091,0.5307 0.55131,0.91885 1.08958,0.91855 0.0533,0 0.10674,-0.004 0.1592,-0.0115 l 1.07139,-0.15162 c 0.11463,-0.0164 0.22986,0.0215 0.31295,0.10219 l 0.77754,0.75206 c 0.4294,0.41849 1.11415,0.41849 1.54356,0 l 0.77783,-0.75206 c 0.0831,-0.0806 0.19893,-0.11826 0.31356,-0.10219 l 1.07108,0.15162 c 0.59376,0.0865 1.14782,-0.31628 1.24909,-0.90733 l 0.1865,-1.06562 c 0.02,-0.11402 0.0916,-0.21259 0.19409,-0.26685 l 0.95494,-0.50674 c 0.53129,-0.27899 0.74326,-0.93098 0.47732,-1.46865 z" />
  </g>
</svg>
