<?xml version="1.0" encoding="UTF-8" standalone="no"?>
<svg
   xmlns:dc="http://purl.org/dc/elements/1.1/"
   xmlns:cc="http://creativecommons.org/ns#"
   xmlns:rdf="http://www.w3.org/1999/02/22-rdf-syntax-ns#"
   xmlns:svg="http://www.w3.org/2000/svg"
   xmlns="http://www.w3.org/2000/svg"
   xmlns:sodipodi="http://sodipodi.sourceforge.net/DTD/sodipodi-0.dtd"
   xmlns:inkscape="http://www.inkscape.org/namespaces/inkscape"
   sodipodi:docname="icon_personal_care.svg"
   inkscape:version="1.0alpha2 (1:0.92.0+devel+201907090511+74dcc2b)"
   id="svg3150"
   version="1.1"
   viewBox="0 0 13.053671 14.818064"
   height="14.818064mm"
   width="13.053671mm">
  <defs
     id="defs3144" />
  <sodipodi:namedview
     inkscape:window-maximized="1"
     inkscape:window-y="27"
     inkscape:window-x="1405"
     inkscape:window-height="713"
     inkscape:window-width="1327"
     fit-margin-bottom="0"
     fit-margin-right="0"
     fit-margin-left="0"
     fit-margin-top="0"
     showgrid="false"
     inkscape:document-rotation="0"
     inkscape:current-layer="layer1"
     inkscape:document-units="mm"
     inkscape:cy="64.189303"
     inkscape:cx="41.963704"
     inkscape:zoom="3.959798"
     inkscape:pageshadow="2"
     inkscape:pageopacity="0.0"
     borderopacity="1.0"
     bordercolor="#666666"
     pagecolor="#ffffff"
     id="base" />
  <metadata
     id="metadata3147">
    <rdf:RDF>
      <cc:Work
         rdf:about="">
        <dc:format>image/svg+xml</dc:format>
        <dc:type
           rdf:resource="http://purl.org/dc/dcmitype/StillImage" />
        <dc:title></dc:title>
      </cc:Work>
    </rdf:RDF>
  </metadata>
  <g
     transform="translate(-55.977471,-69.736615)"
     id="layer1"
     inkscape:groupmode="layer"
     inkscape:label="Layer 1">
    <g
       transform="matrix(0.32854208,0,0,-0.32854208,64.467433,71.086352)"
       id="g368">
      <path
         inkscape:connector-curvature="0"
         id="path370"
         style="fill:#6dbe5f;fill-opacity:1;fill-rule:nonzero;stroke:none"
         d="m 0,0 c -0.965,-1.229 -2.521,-3.555 -2.094,-5.327 0.353,-1.035 1.198,-1.827 2.253,-2.113 l 0.134,-0.055 0.136,0.055 c 1.056,0.286 1.9,1.079 2.251,2.115 C 3.107,-3.538 1.551,-1.225 0.585,0 L 0.292,0.372 Z m -2.275,-20.068 c 0.355,0.002 0.676,-0.211 0.813,-0.539 1.607,-3.635 1.71,-7.758 0.288,-11.469 l -0.211,-0.514 h 7.061 v 17.308 l -10.765,4.3 v -10.674 l 2.354,1.452 c 0.137,0.086 0.297,0.133 0.459,0.136 z m -19.786,-2.646 c -1.836,-5.96 0.422,-11.881 5.377,-14.08 l 1.313,-0.583 -0.864,1.147 c -2.164,2.877 -2.544,6.608 -1.095,10.786 l 0.101,0.281 -4.685,2.912 z m 14.662,-2.433 0.099,-0.283 c 1.455,-4.185 1.078,-7.921 -1.092,-10.8 l -0.862,-1.147 1.312,0.583 c 4.956,2.2 7.213,8.122 5.377,14.083 l -0.145,0.459 z m -5.216,4.861 c -1.675,-2.356 -4.388,-6.951 -3.726,-11.288 0.407,-2.378 1.789,-4.476 3.813,-5.789 l 0.216,-0.154 0.216,0.154 c 2.023,1.313 3.406,3.412 3.813,5.789 0.657,4.334 -2.05,8.932 -3.726,11.288 l -0.3,0.424 z m 10.108,-14.222 c -0.671,-0.953 -1.483,-1.798 -2.408,-2.507 l -0.876,-0.668 h 16.562 v 0.933 l -0.25,0.087 C 9.56,-36.316 8.804,-35.56 8.457,-34.6 l -0.089,0.248 h -10.76 z m -9.818,-4.935 c -4.004,-0.073 -7.769,1.897 -9.992,5.228 -2.542,4.109 -2.86,9.216 -0.847,13.609 0.19,0.449 0.709,0.658 1.158,0.468 0.04,-0.017 0.08,-0.038 0.118,-0.061 l 5.337,-3.316 0.179,0.372 c 0.918,1.886 2.058,3.656 3.393,5.273 0.166,0.195 0.41,0.308 0.666,0.308 0.256,0 0.5,-0.112 0.667,-0.305 1.332,-1.614 2.466,-3.38 3.384,-5.26 l 0.179,-0.372 1.232,0.762 v 13.061 c 0.003,0.488 0.402,0.882 0.89,0.879 0.109,-10e-4 0.218,-0.022 0.319,-0.062 l 5.056,-2.023 v 1.84 l -0.225,0.1 c -1.372,0.489 -2.448,1.573 -2.928,2.949 -0.48,1.6 0,3.577 1.387,5.732 0.59,0.912 1.264,1.767 2.013,2.554 0.167,0.169 0.394,0.265 0.632,0.266 0.234,0 0.46,-0.094 0.625,-0.261 C 1.67,1.51 2.347,0.653 2.938,-0.261 4.323,-2.413 4.806,-4.397 4.323,-5.993 3.843,-7.367 2.768,-8.451 1.397,-8.942 l -0.222,-0.1 v -2.545 l 5.707,-2.281 c 0.334,-0.133 0.553,-0.458 0.551,-0.817 v -17.9 h 1.71 c 0.485,-0.002 0.878,-0.395 0.878,-0.881 10e-4,-0.897 0.728,-1.624 1.625,-1.626 0.486,0 0.879,-0.393 0.88,-0.879 v -2.589 c -10e-4,-0.486 -0.394,-0.879 -0.88,-0.879 h -23.97 z" />
    </g>
  </g>
</svg>
