<?xml version="1.0" encoding="UTF-8" standalone="no"?>
<!-- Created with Inkscape (http://www.inkscape.org/) -->

<svg
   xmlns:dc="http://purl.org/dc/elements/1.1/"
   xmlns:cc="http://creativecommons.org/ns#"
   xmlns:rdf="http://www.w3.org/1999/02/22-rdf-syntax-ns#"
   xmlns:svg="http://www.w3.org/2000/svg"
   xmlns="http://www.w3.org/2000/svg"
   xmlns:sodipodi="http://sodipodi.sourceforge.net/DTD/sodipodi-0.dtd"
   xmlns:inkscape="http://www.inkscape.org/namespaces/inkscape"
   width="8.8792076mm"
   height="5.9983225mm"
   viewBox="0 0 8.8792076 5.9983225"
   version="1.1"
   id="svg5450"
   inkscape:version="0.92.4 (f8dce91, 2019-08-02)"
   sodipodi:docname="promotion.svg">
  <defs
     id="defs5444" />
  <sodipodi:namedview
     id="base"
     pagecolor="#ffffff"
     bordercolor="#666666"
     borderopacity="1.0"
     inkscape:pageopacity="0.0"
     inkscape:pageshadow="2"
     inkscape:zoom="0.7"
     inkscape:cx="-63.129532"
     inkscape:cy="-70.078946"
     inkscape:document-units="mm"
     inkscape:current-layer="layer1"
     showgrid="false"
     fit-margin-top="0"
     fit-margin-left="0"
     fit-margin-right="0"
     fit-margin-bottom="0"
     inkscape:window-width="1366"
     inkscape:window-height="731"
     inkscape:window-x="0"
     inkscape:window-y="0"
     inkscape:window-maximized="1" />
  <metadata
     id="metadata5447">
    <rdf:RDF>
      <cc:Work
         rdf:about="">
        <dc:format>image/svg+xml</dc:format>
        <dc:type
           rdf:resource="http://purl.org/dc/dcmitype/StillImage" />
        <dc:title></dc:title>
      </cc:Work>
    </rdf:RDF>
  </metadata>
  <g
     inkscape:label="Layer 1"
     inkscape:groupmode="layer"
     id="layer1"
     transform="translate(-96.858024,-119.37585)">
    <path
       inkscape:connector-curvature="0"
       id="path200"
       style="fill:#ffffff;fill-opacity:0.75;fill-rule:nonzero;stroke:none;stroke-width:0.35277775"
       d="m 104.80505,122.91495 v -1.08126 c 0.2988,0.0896 0.46813,0.40428 0.37853,0.70273 -0.0547,0.18168 -0.19685,0.3242 -0.37853,0.37853 m -0.53164,1.87537 -4.09751,-1.45803 v -1.91382 l 2.909,-1.03611 v 2.33327 c 0.0176,0.14676 0.15099,0.25153 0.2981,0.23389 0.12241,-0.0148 0.21872,-0.11147 0.23354,-0.23389 v -2.52307 l 0.65687,-0.23353 v 4.83093 z m -5.18301,-1.06433 h 0.553156 v 1.17686 H 99.0904 Z m -1.703211,-1.35114 c 0.03422,-0.51682 0.478367,-0.90946 0.995186,-0.88018 h 1.261181 v 1.76071 h -1.261181 c -0.517525,0.0296 -0.962378,-0.36301 -0.996597,-0.88053 z m 7.417861,-1.03364 v -1.73073 c -0.002,-0.0811 -0.0466,-0.15487 -0.11748,-0.19438 -0.0748,-0.0437 -0.1651,-0.0522 -0.24694,-0.0236 l -4.581174,1.63195 h -1.47567 c -0.745772,-0.091 -1.424516,0.43957 -1.515533,1.18534 -0.09137,0.74612 0.439561,1.42487 1.185333,1.51588 0.109714,0.0134 0.220486,0.0134 0.3302,0 h 0.176389 v 1.41112 c 0.0088,0.13793 0.127353,0.24271 0.265289,0.23495 h 1.085497 c 0.138289,0.008 0.256819,-0.097 0.265639,-0.23495 v -1.29646 l 4.26403,1.51694 c 0.0321,0.0113 0.0656,0.0169 0.0995,0.0169 0.0522,3.5e-4 0.10372,-0.0134 0.14887,-0.0402 0.0709,-0.0392 0.11571,-0.11324 0.11748,-0.19438 v -1.72861 c 0.57079,-0.0596 0.98495,-0.5708 0.92498,-1.14159 -0.0512,-0.48789 -0.43674,-0.87383 -0.92498,-0.92499 z" />
  </g>
</svg>
