<?xml version="1.0" encoding="UTF-8" standalone="no"?>
<svg
   xmlns:dc="http://purl.org/dc/elements/1.1/"
   xmlns:cc="http://creativecommons.org/ns#"
   xmlns:rdf="http://www.w3.org/1999/02/22-rdf-syntax-ns#"
   xmlns:svg="http://www.w3.org/2000/svg"
   xmlns="http://www.w3.org/2000/svg"
   xmlns:sodipodi="http://sodipodi.sourceforge.net/DTD/sodipodi-0.dtd"
   xmlns:inkscape="http://www.inkscape.org/namespaces/inkscape"
   sodipodi:docname="special_hempres.svg"
   inkscape:version="1.0alpha2 (1:0.92.0+devel+201907090511+74dcc2b)"
   id="svg2044"
   version="1.1"
   viewBox="0 0 14.465294 14.464719"
   height="14.464719mm"
   width="14.465294mm">
  <defs
     id="defs2038" />
  <sodipodi:namedview
     inkscape:window-maximized="1"
     inkscape:window-y="27"
     inkscape:window-x="1405"
     inkscape:window-height="713"
     inkscape:window-width="1327"
     fit-margin-bottom="0"
     fit-margin-right="0"
     fit-margin-left="0"
     fit-margin-top="0"
     showgrid="false"
     inkscape:document-rotation="0"
     inkscape:current-layer="layer1"
     inkscape:document-units="mm"
     inkscape:cy="43.952867"
     inkscape:cx="6.868478"
     inkscape:zoom="1.979899"
     inkscape:pageshadow="2"
     inkscape:pageopacity="0.0"
     borderopacity="1.0"
     bordercolor="#666666"
     pagecolor="#ffffff"
     id="base" />
  <metadata
     id="metadata2041">
    <rdf:RDF>
      <cc:Work
         rdf:about="">
        <dc:format>image/svg+xml</dc:format>
        <dc:type
           rdf:resource="http://purl.org/dc/dcmitype/StillImage" />
        <dc:title></dc:title>
      </cc:Work>
    </rdf:RDF>
  </metadata>
  <g
     transform="translate(-83.48164,-114.47598)"
     id="layer1"
     inkscape:groupmode="layer"
     inkscape:label="Layer 1">
    <path
       inkscape:connector-curvature="0"
       id="path692"
       style="opacity:1;fill:#6dbe5f;fill-opacity:1;fill-rule:nonzero;stroke:none;stroke-width:0.324103;stop-opacity:1"
       d="m 84.84755,127.83118 c -0.02009,3.2e-4 -0.03922,-0.006 -0.0551,-0.0185 -0.04052,-0.0301 -0.04894,-0.0878 -0.0188,-0.12866 3.24e-4,-3.1e-4 3.24e-4,-6.5e-4 6.49e-4,-9.2e-4 0.03241,-0.0389 0.0901,-0.0444 0.129318,-0.012 0.03695,0.0305 0.04408,0.0846 0.01621,0.12381 -0.01685,0.0227 -0.04375,0.0363 -0.07228,0.0363" />
    <path
       inkscape:connector-curvature="0"
       id="path696"
       style="opacity:1;fill:#6dbe5f;fill-opacity:1;fill-rule:nonzero;stroke:none;stroke-width:0.324103;stop-opacity:1"
       d="m 84.84755,125.07504 c -0.02009,3.1e-4 -0.03922,-0.006 -0.0551,-0.0185 -0.04052,-0.0298 -0.04926,-0.0875 -0.01912,-0.12802 3.23e-4,-6.5e-4 6.48e-4,-9.2e-4 0.001,-0.002 0.01718,-0.0223 0.04375,-0.0357 0.07195,-0.0357 0.05089,0 0.09204,0.0412 0.09204,0.0921 0,0.0198 -0.0065,0.0389 -0.01847,0.0551 -0.01685,0.0231 -0.04375,0.0367 -0.07228,0.0367" />
    <path
       inkscape:connector-curvature="0"
       id="path700"
       style="opacity:1;fill:#6dbe5f;fill-opacity:1;fill-rule:nonzero;stroke:none;stroke-width:0.324103;stop-opacity:1"
       d="m 84.84755,122.89239 c -0.02009,0 -0.03922,-0.006 -0.0551,-0.0191 -0.04052,-0.0295 -0.04926,-0.0868 -0.01945,-0.12737 l 0.0013,-0.002 c 0.01718,-0.0227 0.04375,-0.036 0.07195,-0.036 0.05089,0 0.09205,0.0415 0.09205,0.092 0,0.0198 -0.0065,0.0392 -0.01848,0.0551 -0.01685,0.023 -0.04375,0.0369 -0.07228,0.0373" />
    <path
       inkscape:connector-curvature="0"
       id="path704"
       style="opacity:1;fill:#6dbe5f;fill-opacity:1;fill-rule:nonzero;stroke:none;stroke-width:0.324103;stop-opacity:1"
       d="m 96.580186,127.83118 c -0.01977,3.2e-4 -0.03889,-0.006 -0.05445,-0.0185 -0.04084,-0.0295 -0.04991,-0.0865 -0.02009,-0.12737 3.16e-4,-6.5e-4 6.57e-4,-0.002 0.0013,-0.002 0.03046,-0.0399 0.08719,-0.0477 0.127373,-0.0175 0.04084,0.0299 0.04958,0.0872 0.02009,0.12802 l -0.0017,0.002 c -0.01718,0.0227 -0.04408,0.036 -0.0726,0.0356" />
    <path
       inkscape:connector-curvature="0"
       id="path708"
       style="opacity:1;fill:#6dbe5f;fill-opacity:1;fill-rule:nonzero;stroke:none;stroke-width:0.324103;stop-opacity:1"
       d="m 96.580186,125.07504 c -0.01977,3.1e-4 -0.03889,-0.006 -0.05445,-0.0182 -0.04084,-0.0295 -0.04991,-0.0866 -0.02009,-0.12737 3.16e-4,-6.7e-4 6.57e-4,-0.002 0.0013,-0.002 0.01685,-0.0227 0.04376,-0.0363 0.07228,-0.036 0.05089,0 0.09172,0.0415 0.09172,0.0924 -3.16e-4,0.0195 -0.0065,0.0386 -0.01815,0.0545 -0.01685,0.0231 -0.04376,0.0369 -0.0726,0.0369" />
    <path
       inkscape:connector-curvature="0"
       id="path712"
       style="opacity:1;fill:#6dbe5f;fill-opacity:1;fill-rule:nonzero;stroke:none;stroke-width:0.324103;stop-opacity:1"
       d="m 96.580186,122.89239 c -0.01977,0 -0.03889,-0.006 -0.05445,-0.0188 -0.04084,-0.0292 -0.04991,-0.0865 -0.02009,-0.12737 l 0.0013,-0.002 c 0.01685,-0.0231 0.04376,-0.0363 0.07228,-0.0363 0.05089,3.2e-4 0.09172,0.0415 0.09172,0.0924 -3.16e-4,0.0195 -0.0065,0.0386 -0.01815,0.0545 -0.01685,0.0233 -0.04376,0.0373 -0.0726,0.0376" />
    <path
       inkscape:connector-curvature="0"
       id="path716"
       style="opacity:1;fill:#6dbe5f;fill-opacity:1;fill-rule:nonzero;stroke:none;stroke-width:0.324103;stop-opacity:1"
       d="m 93.734617,123.98404 c -0.05024,-9.2e-4 -0.09043,-0.0424 -0.08946,-0.0927 0.001,-0.0503 0.04213,-0.0904 0.09269,-0.0895 0.04958,6.6e-4 0.08946,0.0412 0.08946,0.091 0,0.0503 -0.04084,0.091 -0.09107,0.091 z" />
    <path
       inkscape:connector-curvature="0"
       id="path720"
       style="opacity:1;fill:#6dbe5f;fill-opacity:1;fill-rule:nonzero;stroke:none;stroke-width:0.324103;stop-opacity:1"
       d="m 87.691369,127.30957 c -0.05089,-6.5e-4 -0.09172,-0.0424 -0.09107,-0.093 6.57e-4,-0.0509 0.04213,-0.0917 0.09302,-0.091 0.05089,6.5e-4 0.09172,0.0422 0.09107,0.093 -6.57e-4,0.0499 -0.04084,0.0904 -0.09107,0.091 z" />
    <path
       inkscape:connector-curvature="0"
       id="path724"
       style="opacity:1;fill:#6dbe5f;fill-opacity:1;fill-rule:nonzero;stroke:none;stroke-width:0.324103;stop-opacity:1"
       d="m 84.971487,120.10142 c -0.04991,6.7e-4 -0.09043,-0.0392 -0.09107,-0.0891 v -0.002 c -3.23e-4,-0.0502 0.04018,-0.091 0.09043,-0.091 h 6.49e-4 c 0.05024,0 0.09107,0.0405 0.09107,0.091 0,0.0503 -0.04084,0.091 -0.09107,0.091 z" />
    <path
       inkscape:connector-curvature="0"
       id="path728"
       style="opacity:1;fill:#6dbe5f;fill-opacity:1;fill-rule:nonzero;stroke:none;stroke-width:0.324103;stop-opacity:1"
       d="m 85.997602,117.35633 0.253773,-0.008 v -1.90799 h -0.253773 z m 7.195112,2.09177 -0.0042,0.75841 0.14682,0.0149 0.388924,-1.96699 -0.297852,-0.0613 z m -4.211086,0.39281 c 0.666035,0.002 1.28086,0.35716 1.615336,0.9331 l 0.05834,0.10015 0.06708,-0.0943 c 0.189277,-0.26835 0.495555,-0.42975 0.824197,-0.43429 h 0.08978 l -0.01653,-0.0872 c -0.131587,-0.70752 -0.748357,-1.2209 -1.467868,-1.2209 -0.508196,0.005 -0.980091,0.26317 -1.256228,0.68904 l -0.07455,0.11604 z m -4.519632,-0.72081 c -0.01102,0.0723 -0.01686,0.14553 -0.01653,0.21812 0.08751,0.72114 0.238865,1.43255 0.451801,2.1271 l 0.01491,0.0554 h 2.210715 l 0.0081,-0.0651 c 0.05963,-0.42458 0.262525,-0.81642 0.575286,-1.10973 l 0.137743,-0.12996 h -1.060145 c -0.104037,0 -0.187981,-0.084 -0.187981,-0.18766 0,-0.10371 0.08394,-0.18766 0.187981,-0.18766 h 1.105196 l 0.01167,-0.0613 c 0.02949,-0.14551 0.04732,-0.29299 0.05316,-0.44142 -0.04116,-0.92889 -0.825169,-1.65067 -1.754376,-1.61437 -0.628438,-0.009 -1.215067,0.31406 -1.544357,0.84949 l -0.06644,0.11278 H 85.8832 c 0.103714,0 0.187981,0.084 0.187981,0.18798 0,0.10339 -0.08427,0.18766 -0.187981,0.18766 h -1.296416 l -0.07681,-0.0155 z m 4.519632,1.09581 c -0.717566,3.1e-4 -1.333364,0.51111 -1.466247,1.21635 l -0.01653,0.0882 h 2.964258 l -0.01555,-0.0882 c -0.133207,-0.70492 -0.74868,-1.21539 -1.465924,-1.21571 z m 2.571767,0.50494 c -0.366238,0.007 -0.657607,0.30953 -0.651449,0.67577 v 0.0742 l 0.07681,0.0496 h 1.218308 l 0.0062,-0.0681 c 0.03014,-0.37303 -0.247615,-0.69941 -0.620335,-0.72955 -0.0097,-6.5e-4 -0.01977,-9.2e-4 -0.02949,-0.002 z m 0.955459,0.23952 c 0.04472,0.14131 0.06903,0.2878 0.0726,0.43592 v 0.0742 l 0.07389,0.0496 h 0.156543 v -2.68585 h -0.303362 z m 1.017687,0.25345 -0.06482,0.30627 h 0.300769 l 1.235481,-1.71548 -0.442078,-0.29428 z m 0.970693,-2.15626 c 0.03662,0 0.0726,0.0113 0.10274,0.0324 l 0.766183,0.50916 c 0.08653,0.0587 0.109223,0.17599 0.05056,0.2622 0,3.2e-4 -3.16e-4,6.6e-4 -6.56e-4,9.2e-4 l -1.157051,1.65844 h 0.518566 l 0.02171,-0.0376 c 0.03241,-0.0567 0.05963,-0.11635 0.082,-0.17793 0.02658,-0.0752 0.09723,-0.12511 0.176961,-0.12543 0.08135,0.0149 0.163673,0.0227 0.246644,0.024 0.613853,3.2e-4 1.112001,-0.49684 1.112325,-1.11103 6.56e-4,-0.50948 -0.345495,-0.95415 -0.839754,-1.07861 -0.06093,-0.0159 -0.110196,-0.0603 -0.131586,-0.1196 -0.02075,-0.0593 -0.01069,-0.12478 0.0269,-0.17469 0.14293,-0.19155 0.219742,-0.42425 0.21877,-0.66279 0,-0.61353 -0.497176,-1.11168 -1.110705,-1.11265 -0.24081,-6.5e-4 -0.475137,0.0774 -0.667331,0.22266 -0.0713,0.0528 -0.170155,0.049 -0.236596,-0.01 -0.564903,-0.50074 -1.428965,-0.44888 -1.930029,0.11604 -0.221688,0.2502 -0.343875,0.57269 -0.343875,0.90684 -0.0045,0.10371 -0.09237,0.18409 -0.196407,0.17987 -0.09756,-0.005 -0.175665,-0.0823 -0.179878,-0.17987 0.0013,-0.74123 0.470275,-1.40078 1.170017,-1.64548 l 0.07325,-0.0253 -0.02885,-0.0723 c -0.323124,-0.81124 -1.242607,-1.20664 -2.053516,-0.88351 -0.422956,0.16853 -0.752894,0.51175 -0.904899,0.94087 -0.02658,0.0745 -0.09723,0.1251 -0.176312,0.12543 -0.116354,-0.0227 -0.234327,-0.0346 -0.35295,-0.036 -0.638161,-9.2e-4 -1.21377,0.38309 -1.458469,0.97231 l -0.02463,0.0603 0.05607,0.0321 c 0.145847,0.0849 0.281322,0.18701 0.403186,0.30401 l 0.06676,0.0649 0.04829,-0.0785 c 0.257015,-0.41389 0.710112,-0.66539 1.197565,-0.66441 l 0.127049,0.005 0.02236,-0.0424 c 0.08427,-0.15881 0.197055,-0.30077 0.332855,-0.4181 0.03435,-0.0288 0.07779,-0.0447 0.122512,-0.0447 0.104361,6.5e-4 0.188304,0.0862 0.187331,0.19025 -3.16e-4,0.0541 -0.02399,0.10565 -0.06481,0.14131 -0.13969,0.11829 -0.245348,0.2716 -0.30628,0.44435 -0.02658,0.0749 -0.09723,0.1251 -0.17696,0.1251 -0.08038,-0.0149 -0.162052,-0.0233 -0.244051,-0.0243 -0.434299,3.2e-4 -0.822252,0.27128 -0.972312,0.67868 0.165617,0.31114 0.255717,0.65663 0.262848,1.00926 -0.0049,0.14941 -0.02139,0.29817 -0.04959,0.44499 l 0.143579,0.0402 c 0.127373,-0.31243 0.336744,-0.58403 0.606074,-0.78692 0.322808,-0.2447 0.717243,-0.37693 1.122049,-0.37596 0.892907,9.2e-4 1.660386,0.6333 1.833458,1.50903 l 0.147791,-0.0142 v -1.51033 c 3.16e-4,-0.10339 0.08394,-0.18733 0.187332,-0.18765 h 0.674785 l 0.09723,-0.52149 c 0.0085,-0.0496 0.03727,-0.0933 0.07908,-0.12089 0.03112,-0.0214 0.06774,-0.0327 0.105334,-0.0327 l 0.705575,0.14131 c 0.10112,0.0208 0.166265,0.11927 0.146171,0.22039 l -0.313085,1.5839 0.13742,0.0538 0.382767,-0.63395 c 0.0256,-0.0435 0.06871,-0.0749 0.118622,-0.0855 z m -10.051443,8.91967 H 96.98214 v -1.77674 h -8.352164 c -0.103714,0 -0.187981,-0.0842 -0.187981,-0.18798 0,-0.10339 0.08426,-0.18766 0.187981,-0.18766 h 8.352164 v -1.77706 h -2.384434 c -0.103714,0 -0.187656,-0.0836 -0.187656,-0.18766 0,-0.10371 0.08394,-0.18798 0.187656,-0.18798 h 2.384434 v -1.77642 H 84.445791 v 1.77642 h 8.351516 c 0.103713,0 0.18798,0.0842 0.18798,0.18798 0,0.10404 -0.08427,0.18766 -0.18798,0.18766 h -8.351516 v 1.77706 h 2.383785 c 0.103714,0 0.187656,0.0842 0.187656,0.18766 0,0.10371 -0.08394,0.18798 -0.187656,0.18798 h -2.383785 z m -0.188305,0.37563 c -0.103713,-3.2e-4 -0.18798,-0.0842 -0.18798,-0.18798 v -6.45615 c 0,-0.10404 0.08427,-0.18766 0.18798,-0.18798 h 0.265766 l -0.02463,-0.0934 c -0.20775,-0.68159 -0.351329,-1.38068 -0.429113,-2.08884 0.0175,-0.89032 0.620011,-1.66234 1.479535,-1.89472 l 0.06256,-0.0188 -0.0097,-0.0649 c -0.122511,-0.79179 -0.919484,-1.32883 -0.95319,-1.35346 -0.08686,-0.0571 -0.111168,-0.17307 -0.05445,-0.26026 0.05672,-0.0865 0.173395,-0.11116 0.259931,-0.0545 0.238216,0.16595 0.452449,0.36365 0.636216,0.58793 l 0.132235,0.16205 v -1.19075 c 3.24e-4,-0.1034 0.08459,-0.18734 0.187981,-0.18734 h 0.630058 c 0.103714,0 0.187656,0.084 0.188305,0.18734 v 1.06953 l 0.124132,-0.11278 c 0.146819,-0.13774 0.32929,-0.23141 0.526993,-0.27096 h 0.01394 c 0.05542,-0.005 0.110196,0.0142 0.150708,0.0518 0.03533,0.0357 0.0551,0.0833 0.0551,0.13288 0,0.0499 -0.01977,0.0972 -0.0551,0.13256 -0.02885,0.0282 -0.06612,0.047 -0.105981,0.0538 -0.136449,0.0337 -0.261229,0.1034 -0.361377,0.20225 -0.209695,0.21942 -0.33091,0.50917 -0.34031,0.81253 l -0.0062,0.0651 0.06449,0.0142 c 0.05639,0.0127 0.110843,0.0269 0.164646,0.0431 l 0.06449,0.0204 0.02528,-0.0626 c 0.304979,-0.72567 1.015415,-1.19692 1.80234,-1.19594 0.06125,0 0.121863,0.003 0.182147,0.009 l 0.05121,0.005 0.02268,-0.0463 c 0.46671,-0.97393 1.635105,-1.38522 2.609038,-0.91819 0.473517,0.2272 0.835865,0.6346 1.005372,1.13177 l 0.01815,0.0522 h 0.06806 c 0.378878,-0.0107 0.751598,0.0992 1.063386,0.31503 l 0.03889,0.0272 0.04018,-0.024 c 0.222335,-0.12478 0.473515,-0.19058 0.728585,-0.18961 0.822901,9.2e-4 1.488287,0.66928 1.487314,1.49186 -3.16e-4,0.20807 -0.0444,0.4142 -0.129641,0.60477 l -0.02949,0.0645 0.06449,0.0327 c 0.504306,0.25053 0.821929,0.76586 0.819984,1.3285 -0.0019,0.53283 -0.287481,1.02449 -0.748681,1.29026 l -0.242106,0.13872 h 1.369017 c 0.103389,3.1e-4 0.187656,0.084 0.188304,0.18798 v 6.45615 c -6.57e-4,0.10372 -0.08492,0.18766 -0.188304,0.18798 z" />
    <path
       inkscape:connector-curvature="0"
       id="path732"
       style="opacity:1;fill:#6dbe5f;fill-opacity:1;fill-rule:nonzero;stroke:none;stroke-width:0.324103;stop-opacity:1"
       d="m 90.430276,115.93332 c -0.05089,-3.2e-4 -0.09173,-0.0422 -0.09107,-0.093 6.57e-4,-0.0505 0.04245,-0.0914 0.09302,-0.0908 0.05089,3.2e-4 0.09172,0.0422 0.09107,0.093 -3.16e-4,0.0499 -0.04084,0.0904 -0.09107,0.0908 z" />
  </g>
</svg>
