<?xml version="1.0" encoding="UTF-8" standalone="no"?>
<svg
   xmlns:dc="http://purl.org/dc/elements/1.1/"
   xmlns:cc="http://creativecommons.org/ns#"
   xmlns:rdf="http://www.w3.org/1999/02/22-rdf-syntax-ns#"
   xmlns:svg="http://www.w3.org/2000/svg"
   xmlns="http://www.w3.org/2000/svg"
   xmlns:sodipodi="http://sodipodi.sourceforge.net/DTD/sodipodi-0.dtd"
   xmlns:inkscape="http://www.inkscape.org/namespaces/inkscape"
   sodipodi:docname="sports_nutrition.svg"
   inkscape:version="1.0alpha2 (1:0.92.0+devel+201907090511+74dcc2b)"
   id="svg3319"
   version="1.1"
   viewBox="0 0 13.124744 14.816667"
   height="14.816667mm"
   width="13.124744mm">
  <defs
     id="defs3313" />
  <sodipodi:namedview
     inkscape:window-maximized="1"
     inkscape:window-y="27"
     inkscape:window-x="1405"
     inkscape:window-height="713"
     inkscape:window-width="1327"
     fit-margin-bottom="0"
     fit-margin-right="0"
     fit-margin-left="0"
     fit-margin-top="0"
     showgrid="false"
     inkscape:document-rotation="0"
     inkscape:current-layer="layer1"
     inkscape:document-units="mm"
     inkscape:cy="40.071178"
     inkscape:cx="50.431817"
     inkscape:zoom="3.959798"
     inkscape:pageshadow="2"
     inkscape:pageopacity="0.0"
     borderopacity="1.0"
     bordercolor="#666666"
     pagecolor="#ffffff"
     id="base" />
  <metadata
     id="metadata3316">
    <rdf:RDF>
      <cc:Work
         rdf:about="">
        <dc:format>image/svg+xml</dc:format>
        <dc:type
           rdf:resource="http://purl.org/dc/dcmitype/StillImage" />
        <dc:title></dc:title>
      </cc:Work>
    </rdf:RDF>
  </metadata>
  <g
     transform="translate(-37.282866,-152.09762)"
     id="layer1"
     inkscape:groupmode="layer"
     inkscape:label="Layer 1">
    <g
       transform="matrix(0.32700363,0,0,-0.32700363,48.111655,165.83805)"
       id="g416">
      <path
         inkscape:connector-curvature="0"
         id="path418"
         style="fill:#6dbe5f;fill-opacity:1;fill-rule:nonzero;stroke:none"
         d="m 0,0 h -16.055 c 0.147,0.341 0.223,0.708 0.224,1.08 v 15.936 c 1.014,0.214 1.74,1.108 1.74,2.144 v 2.007 c -0.002,1.209 -0.982,2.189 -2.192,2.191 h -6.187 v 2.467 c 0.003,2.162 1.754,3.914 3.916,3.917 H 0 c 2.15,-0.004 3.895,-1.738 3.915,-3.887 h -9.787 c -2.206,0 -3.996,-1.787 -4,-3.993 v -3.71 c 0,-0.453 0.368,-0.821 0.822,-0.821 0.453,0 0.821,0.368 0.821,0.821 v 3.71 c 10e-4,1.299 1.055,2.351 2.354,2.352 H 3.911 V 5.527 h -9.786 c -1.3,0.002 -2.353,1.055 -2.354,2.354 v 3.71 c 0,0.453 -0.368,0.821 -0.821,0.821 -0.454,0 -0.822,-0.368 -0.822,-0.821 v -3.71 c 0.004,-2.206 1.794,-3.993 4,-3.993 H 3.915 C 3.895,1.738 2.148,0.005 -0.001,0.001 Z m -28.26,1.08 v 15.889 h 10.789 v -3.35 h -6.6 c -1.151,-0.002 -2.084,-0.934 -2.087,-2.085 V 6.942 c 0.001,-1.152 0.935,-2.086 2.087,-2.088 h 6.6 V 1.083 c 0,-0.596 -0.484,-1.08 -1.08,-1.08 h -8.629 c -0.596,0 -1.079,0.484 -1.08,1.08 z m 10.789,5.413 h -6.6 c -0.246,0.004 -0.444,0.203 -0.446,0.449 v 4.592 c 0.003,0.245 0.201,0.443 0.446,0.446 h 6.6 z m -12.532,14.674 c 0.005,0.303 0.25,0.548 0.553,0.552 h 13.17 c 0.303,-0.005 0.547,-0.249 0.552,-0.552 V 19.16 c -0.005,-0.303 -0.249,-0.547 -0.552,-0.552 h -13.175 c -0.304,0.001 -0.551,0.247 -0.553,0.552 z M -0.818,33.43 V 31.383 H -17.73 v 2.048 z m -19.872,2.317 v 2.3 c 0.001,0.373 0.302,0.676 0.675,0.678 h 21.48 c 0.374,-0.001 0.677,-0.304 0.677,-0.678 v -2.3 C 2.143,35.373 1.84,35.07 1.466,35.069 h -10e-4 -21.48 c -0.373,10e-4 -0.675,0.304 -0.675,0.678 M 0.821,31.32 v 2.11 h 0.644 c 1.28,10e-4 2.316,1.038 2.316,2.317 v 2.3 c 0,1.279 -1.037,2.316 -2.316,2.317 h -21.48 c -1.278,-0.003 -2.314,-1.039 -2.316,-2.317 v -2.3 c 0.001,-1.279 1.038,-2.315 2.316,-2.317 h 0.644 v -2.11 c -2.719,-0.408 -4.732,-2.744 -4.735,-5.494 v -2.467 h -5.349 c -1.209,-0.003 -2.189,-0.982 -2.194,-2.191 v -2.007 c 0.002,-1.037 0.729,-1.931 1.743,-2.144 V 1.083 c 0.002,-1.502 1.22,-2.718 2.722,-2.719 h 27.181 c 3.068,0.002 5.555,2.488 5.558,5.556 v 21.905 c -0.004,2.751 -2.017,5.086 -4.737,5.494 z" />
    </g>
  </g>
</svg>
