<?xml version="1.0" encoding="UTF-8" standalone="no"?>
<svg
   xmlns:dc="http://purl.org/dc/elements/1.1/"
   xmlns:cc="http://creativecommons.org/ns#"
   xmlns:rdf="http://www.w3.org/1999/02/22-rdf-syntax-ns#"
   xmlns:svg="http://www.w3.org/2000/svg"
   xmlns="http://www.w3.org/2000/svg"
   xmlns:sodipodi="http://sodipodi.sourceforge.net/DTD/sodipodi-0.dtd"
   xmlns:inkscape="http://www.inkscape.org/namespaces/inkscape"
   sodipodi:docname="supplement_n_vitamin.svg"
   inkscape:version="1.0alpha2 (1:0.92.0+devel+201907090511+74dcc2b)"
   id="svg3381"
   version="1.1"
   viewBox="0 0 14.834631 14.816071"
   height="14.816071mm"
   width="14.834631mm">
  <defs
     id="defs3375" />
  <sodipodi:namedview
     fit-margin-bottom="0"
     fit-margin-right="0"
     fit-margin-left="0"
     fit-margin-top="0"
     inkscape:window-maximized="1"
     inkscape:window-y="27"
     inkscape:window-x="1405"
     inkscape:window-height="713"
     inkscape:window-width="1327"
     showgrid="false"
     inkscape:document-rotation="0"
     inkscape:current-layer="layer1"
     inkscape:document-units="mm"
     inkscape:cy="43.695983"
     inkscape:cx="24.946074"
     inkscape:zoom="5.6"
     inkscape:pageshadow="2"
     inkscape:pageopacity="0.0"
     borderopacity="1.0"
     bordercolor="#666666"
     pagecolor="#ffffff"
     id="base" />
  <metadata
     id="metadata3378">
    <rdf:RDF>
      <cc:Work
         rdf:about="">
        <dc:format>image/svg+xml</dc:format>
        <dc:type
           rdf:resource="http://purl.org/dc/dcmitype/StillImage" />
        <dc:title></dc:title>
      </cc:Work>
    </rdf:RDF>
  </metadata>
  <g
     transform="translate(-67.42197,-121.85982)"
     id="layer1"
     inkscape:groupmode="layer"
     inkscape:label="Layer 1">
    <g
       transform="matrix(0.93856522,0,0,0.93856522,4.5977351,7.9415422)"
       id="g3465">
      <g
         id="g608"
         transform="matrix(0.35277777,0,0,-0.35277777,81.764829,127.04565)">
        <path
           d="m 0,0 h -20.108 c -0.292,0.14 -0.59,0.271 -0.893,0.392 V 0.7 c 0.004,1.931 1.568,3.496 3.5,3.5 1.16,0 2.1,0.94 2.1,2.1 v 0 1.4 h 9.8 V 6.3 c 0.006,-1.157 0.943,-2.094 2.1,-2.1 1.933,0 3.5,-1.567 3.5,-3.5 z m -2.1,-25.9 h -16.8 c -0.287,0.003 -0.571,0.064 -0.833,0.18 2.151,1.101 3.993,2.723 5.356,4.719 H 0 v -2.8 c 0,-1.16 -0.939,-2.1 -2.1,-2.1 z m -11.355,19.414 c -0.219,0.432 -0.46,0.855 -0.722,1.264 l 0.984,1.021 h 5.389 l 2.282,-2.327 c 0.019,-0.378 -0.193,-0.73 -0.535,-0.892 -0.263,-0.097 -0.558,-0.028 -0.75,0.175 l -1.162,1.2 c -0.264,0.287 -0.636,0.449 -1.026,0.446 h -3.008 c -0.38,0.004 -0.745,-0.151 -1.005,-0.428 z m 1.451,-8.914 h 3.008 c 0.382,-0.005 0.748,0.151 1.01,0.43 l 1.42,1.5 c 0.379,0.038 0.743,-0.16 0.916,-0.5 0.106,-0.257 0.05,-0.551 -0.142,-0.752 l -2.011,-2.084 h -4.635 c 0.128,0.467 0.233,0.937 0.315,1.413 0.042,0 0.08,-0.012 0.12,-0.012 z m 12,-4.2 h -13.547 c 0.238,0.455 0.45,0.922 0.637,1.4 h 5.101 c 0.38,10e-4 0.743,0.156 1.007,0.43 l 2.011,2.079 c 0.579,0.601 0.748,1.487 0.43,2.259 -0.378,0.855 -1.237,1.394 -2.17,1.364 -0.385,0.005 -0.754,-0.151 -1.018,-0.43 l -1.451,-1.5 -2.957,0.012 c 0.025,0.343 0.053,0.689 0.053,1.037 -0.002,1.498 -0.238,2.986 -0.7,4.41 v 0.925 l 0.6,0.617 H -9 l 1.183,-1.215 c 0.577,-0.602 1.457,-0.807 2.24,-0.519 0.877,0.348 1.452,1.197 1.451,2.14 0.014,0.377 -0.131,0.742 -0.4,1.007 l -2.268,2.357 c -0.265,0.277 -0.631,0.433 -1.014,0.434 h -5.389 c -0.381,-10e-4 -0.745,-0.157 -1.009,-0.432 l -0.8,-0.829 c -0.8,1.006 -1.73,1.901 -2.766,2.661 h 17.77 z m -39.2,6.648 c -0.002,7.152 5.796,12.951 12.948,12.952 7.152,0.001 12.951,-5.796 12.952,-12.948 10e-4,-7.152 -5.796,-12.951 -12.948,-12.952 h -0.002 c -7.152,0 -12.949,5.797 -12.95,12.948 m 22.4,25.551 c 0,0.387 0.313,0.7 0.7,0.7 h 0.7 v -4.2 h -1.4 z m 4.2,-3.5 h -1.4 v 4.2 h 1.4 z m 8.399,3.5 v -3.5 h -7 v 4.2 h 6.301 c 0.386,0 0.699,-0.313 0.699,-0.7 m 0.701,-7 c -0.189,0.002 -0.37,0.079 -0.5,0.215 -0.129,0.129 -0.201,0.304 -0.201,0.486 v 1.4 c 0.774,0 1.4,0.627 1.4,1.4 v 3.5 c 0,1.16 -0.94,2.1 -2.1,2.1 h -11.199 c -1.161,0 -2.101,-0.94 -2.101,-2.1 V 9.1 c 0,-0.773 0.627,-1.4 1.4,-1.4 V 6.3 c 0,-0.386 -0.313,-0.7 -0.7,-0.7 -2.643,0.001 -4.81,-2.098 -4.894,-4.74 -7.626,2.157 -15.557,-2.278 -17.713,-9.904 -2.156,-7.626 2.278,-15.557 9.904,-17.713 2.948,-0.833 6.084,-0.702 8.951,0.375 0.641,-0.589 1.48,-0.916 2.35,-0.916 h 16.801 c 1.933,0 3.5,1.567 3.5,3.5 v 24.5 c 0,2.706 -2.194,4.9 -4.9,4.9 z"
           style="fill:#6dbe5f;fill-opacity:1;fill-rule:nonzero;stroke:none"
           id="path610"
           inkscape:connector-curvature="0" />
      </g>
      <g
         id="g612"
         transform="matrix(0.35277777,0,0,-0.35277777,71.839179,129.31648)">
        <path
           d="M 0,0 C -0.386,0.003 -0.697,0.32 -0.694,0.706 -0.69,1.093 -0.375,1.403 0.012,1.4 0.396,1.397 0.706,1.084 0.706,0.7 0.706,0.313 0.393,0 0.006,0 Z M 1.4,0.65 C 1.4,0.669 1.406,0.685 1.406,0.704 1.405,0.968 1.33,1.226 1.188,1.448 1.445,1.665 1.774,1.776 2.11,1.761 2.304,1.74 2.477,1.88 2.498,2.074 2.519,2.267 2.378,2.44 2.185,2.461 2.16,2.464 2.135,2.464 2.11,2.461 1.58,2.48 1.064,2.288 0.676,1.927 0.264,2.166 -0.244,2.17 -0.661,1.938 -0.935,2.263 -1.336,2.454 -1.761,2.461 -1.954,2.482 -2.127,2.342 -2.148,2.148 -2.169,1.955 -2.029,1.782 -1.835,1.761 c 0.024,-0.003 0.049,-0.003 0.074,0 0.227,-0.008 0.439,-0.114 0.583,-0.289 -0.255,-0.386 -0.301,-0.873 -0.125,-1.3 -0.514,-0.183 -0.845,-0.686 -0.81,-1.231 0,-0.195 0.158,-0.353 0.353,-0.353 0.195,0 0.353,0.158 0.353,0.353 0,0.443 0.222,0.547 0.563,0.641 0.609,-0.468 1.482,-0.354 1.951,0.255 0.034,0.044 0.065,0.091 0.094,0.139 0.264,-0.063 0.485,-0.243 0.6,-0.488 0.087,-0.174 0.299,-0.244 0.472,-0.157 0.175,0.086 0.245,0.298 0.158,0.472 C 2.229,0.221 1.854,0.53 1.405,0.648 Z"
           style="fill:#6dbe5f;fill-opacity:1;fill-rule:nonzero;stroke:none"
           id="path614"
           inkscape:connector-curvature="0" />
      </g>
      <g
         id="g616"
         transform="matrix(0.35277777,0,0,-0.35277777,74.183387,133.70102)">
        <path
           d="m 0,0 c -0.141,0.13 -0.359,0.13 -0.5,0 -0.032,-0.034 -0.057,-0.073 -0.074,-0.116 -0.018,-0.043 -0.028,-0.088 -0.028,-0.134 0.001,-0.024 0.003,-0.048 0.007,-0.071 0.004,-0.022 0.011,-0.043 0.021,-0.062 0.008,-0.023 0.019,-0.044 0.032,-0.063 L -0.5,-0.499 c 0.067,-0.065 0.157,-0.101 0.25,-0.1 0.093,0 0.183,0.036 0.25,0.1 l 0.042,0.053 c 0.014,0.019 0.025,0.04 0.032,0.063 0.01,0.019 0.017,0.04 0.021,0.062 0.005,0.023 0.007,0.047 0.007,0.071 0,0.046 -0.009,0.092 -0.028,0.134 C 0.058,-0.073 0.032,-0.034 0,0"
           style="fill:#6dbe5f;fill-opacity:1;fill-rule:nonzero;stroke:none"
           id="path618"
           inkscape:connector-curvature="0" />
      </g>
      <g
         id="g620"
         transform="matrix(0.35277777,0,0,-0.35277777,74.936674,132.94759)">
        <path
           d="m 0,0 c -0.141,0.131 -0.359,0.131 -0.5,0 -0.062,-0.068 -0.098,-0.157 -0.1,-0.25 0,-0.023 0,-0.047 0.007,-0.069 0.004,-0.022 0.01,-0.043 0.021,-0.063 0.008,-0.022 0.018,-0.043 0.032,-0.063 l 0.042,-0.053 c 0.067,-0.065 0.157,-0.101 0.251,-0.1 0.093,0.001 0.182,0.036 0.249,0.1 l 0.042,0.053 c 0.014,0.019 0.025,0.04 0.032,0.063 0.01,0.02 0.018,0.041 0.021,0.063 0.005,0.023 0.007,0.046 0.007,0.069 -0.002,0.093 -0.038,0.182 -0.1,0.25 z"
           style="fill:#6dbe5f;fill-opacity:1;fill-rule:nonzero;stroke:none"
           id="path622"
           inkscape:connector-curvature="0" />
      </g>
      <g
         id="g624"
         transform="matrix(0.35277777,0,0,-0.35277777,73.429959,135.46819)">
        <path
           d="m 0,0 c -0.141,0.131 -0.359,0.131 -0.5,0 -0.032,-0.033 -0.057,-0.073 -0.074,-0.116 -0.019,-0.042 -0.029,-0.088 -0.029,-0.134 0,-0.024 0.003,-0.047 0.007,-0.071 0.003,-0.022 0.011,-0.043 0.021,-0.063 0.007,-0.022 0.018,-0.043 0.031,-0.063 L -0.502,-0.5 c 0.067,-0.064 0.157,-0.1 0.25,-0.1 0.092,0.001 0.181,0.037 0.249,0.1 l 0.042,0.053 c 0.013,0.019 0.024,0.041 0.031,0.063 0.011,0.02 0.017,0.041 0.021,0.063 0.005,0.024 0.007,0.047 0.007,0.071 0,0.046 -0.009,0.092 -0.028,0.134 C 0.054,-0.073 0.028,-0.033 -0.004,0 Z"
           style="fill:#6dbe5f;fill-opacity:1;fill-rule:nonzero;stroke:none"
           id="path626"
           inkscape:connector-curvature="0" />
      </g>
      <g
         id="g628"
         transform="matrix(0.35277777,0,0,-0.35277777,74.936674,135.46819)">
        <path
           d="m 0,0 c -0.141,0.131 -0.359,0.131 -0.5,0 -0.032,-0.033 -0.057,-0.073 -0.074,-0.116 -0.018,-0.042 -0.028,-0.088 -0.028,-0.134 0,-0.024 0,-0.047 0.007,-0.071 0.004,-0.022 0.011,-0.043 0.021,-0.063 0.008,-0.022 0.019,-0.043 0.032,-0.063 L -0.5,-0.5 c 0.068,-0.064 0.158,-0.1 0.251,-0.1 0.092,0.001 0.181,0.037 0.249,0.1 l 0.042,0.053 c 0.014,0.019 0.024,0.041 0.032,0.063 0.01,0.02 0.017,0.041 0.021,0.063 0.005,0.024 0.007,0.047 0.007,0.071 0,0.046 -0.009,0.092 -0.028,0.134 C 0.058,-0.073 0.032,-0.033 0,0"
           style="fill:#6dbe5f;fill-opacity:1;fill-rule:nonzero;stroke:none"
           id="path630"
           inkscape:connector-curvature="0" />
      </g>
      <g
         id="g632"
         transform="matrix(0.35277777,0,0,-0.35277777,75.705625,133.85917)">
        <path
           d="M 0,0 C 0.014,0.019 0.024,0.041 0.031,0.063 0.042,0.083 0.049,0.104 0.052,0.125 0.057,0.148 0.059,0.172 0.059,0.196 0.06,0.242 0.05,0.288 0.031,0.33 0.015,0.374 -0.01,0.413 -0.043,0.446 c -0.141,0.131 -0.359,0.131 -0.5,0 C -0.575,0.413 -0.6,0.373 -0.617,0.33 -0.644,0.267 -0.651,0.197 -0.638,0.13 -0.634,0.108 -0.627,0.087 -0.617,0.068 -0.609,0.045 -0.599,0.024 -0.585,0.005 l 0.042,-0.053 c 0.067,-0.065 0.157,-0.1 0.25,-0.1 0.093,0.001 0.182,0.036 0.249,0.1 z"
           style="fill:#6dbe5f;fill-opacity:1;fill-rule:nonzero;stroke:none"
           id="path634"
           inkscape:connector-curvature="0" />
      </g>
      <g
         id="g636"
         transform="matrix(0.35277777,0,0,-0.35277777,75.989999,132.8322)">
        <path
           d="m 0,0 c 0.008,-0.022 0.019,-0.043 0.032,-0.063 l 0.042,-0.053 c 0.068,-0.064 0.157,-0.1 0.25,-0.1 0.093,0.002 0.181,0.037 0.25,0.1 l 0.042,0.053 C 0.629,-0.043 0.64,-0.022 0.648,0 0.657,0.02 0.664,0.041 0.668,0.063 0.672,0.086 0.675,0.11 0.676,0.134 0.674,0.227 0.638,0.315 0.576,0.384 0.433,0.519 0.208,0.512 0.073,0.369 0.012,0.305 -0.022,0.222 -0.024,0.134 c 0,-0.024 0,-0.047 0.007,-0.071 C -0.013,0.041 -0.005,0.02 0.004,0 Z"
           style="fill:#6dbe5f;fill-opacity:1;fill-rule:nonzero;stroke:none"
           id="path638"
           inkscape:connector-curvature="0" />
      </g>
      <g
         id="g640"
         transform="matrix(0.35277777,0,0,-0.35277777,74.183387,135.84115)">
        <path
           d="m 0,0 c -0.141,0.131 -0.359,0.131 -0.5,0 -0.062,-0.068 -0.098,-0.157 -0.1,-0.25 0.001,-0.023 0.003,-0.047 0.007,-0.071 0.004,-0.022 0.011,-0.043 0.021,-0.063 0.008,-0.022 0.019,-0.044 0.032,-0.064 l 0.042,-0.053 c 0.139,-0.137 0.361,-0.137 0.5,0 l 0.042,0.053 c 0.014,0.02 0.025,0.041 0.032,0.064 0.01,0.02 0.018,0.041 0.021,0.063 0.005,0.024 0.007,0.048 0.007,0.071 0,0.046 -0.009,0.092 -0.028,0.134 C 0.06,-0.073 0.034,-0.033 0.002,0 Z"
           style="fill:#6dbe5f;fill-opacity:1;fill-rule:nonzero;stroke:none"
           id="path642"
           inkscape:connector-curvature="0" />
      </g>
      <g
         id="g644"
         transform="matrix(0.35277777,0,0,-0.35277777,72.9275,135.96635)">
        <path
           d="m 0,0 c -0.133,0.138 -0.353,0.143 -0.491,0.01 -0.036,-0.035 -0.065,-0.078 -0.083,-0.126 -0.019,-0.042 -0.028,-0.088 -0.028,-0.134 0,-0.023 0.002,-0.047 0.007,-0.071 0.004,-0.022 0.011,-0.043 0.021,-0.063 0.008,-0.023 0.018,-0.044 0.032,-0.064 L -0.5,-0.501 c 0.139,-0.137 0.361,-0.137 0.5,0 l 0.042,0.053 c 0.013,0.02 0.024,0.042 0.032,0.064 0.01,0.02 0.018,0.041 0.021,0.063 0.004,0.024 0.007,0.048 0.007,0.071 0,0.046 -0.01,0.092 -0.028,0.134 C 0.057,-0.073 0.032,-0.034 0,0"
           style="fill:#6dbe5f;fill-opacity:1;fill-rule:nonzero;stroke:none"
           id="path646"
           inkscape:connector-curvature="0" />
      </g>
    </g>
  </g>
</svg>
